<svg width="35" height="35" viewBox="0 0 35 35" fill="none" xmlns="http://www.w3.org/2000/svg">
<circle cx="17.449" cy="17.551" r="17.449" fill="#E5BA73"/>
<path d="M15.4384 18.6397H13.3655C13.0305 18.6397 12.9258 18.514 12.9258 18.2V15.6664C12.9258 15.3313 13.0514 15.2267 13.3655 15.2267H15.4384V13.384C15.4384 12.5465 15.585 11.7508 16.0038 11.018C16.4435 10.2642 17.0717 9.76164 17.8673 9.46849C18.3908 9.28004 18.9143 9.19629 19.4796 9.19629H21.5316C21.8248 9.19629 21.9504 9.32192 21.9504 9.61506V12.0021C21.9504 12.2952 21.8248 12.4209 21.5316 12.4209C20.9663 12.4209 20.4009 12.4209 19.8356 12.4418C19.2702 12.4418 18.9771 12.714 18.9771 13.3003C18.9561 13.9285 18.9771 14.5357 18.9771 15.1848H21.406C21.741 15.1848 21.8666 15.3104 21.8666 15.6454V18.179C21.8666 18.514 21.7619 18.6187 21.406 18.6187H18.9771V25.4448C18.9771 25.8007 18.8724 25.9264 18.4955 25.9264H15.8781C15.5641 25.9264 15.4384 25.8007 15.4384 25.4867V18.6397Z" fill="#212429"/>
</svg>
