<svg width="36" height="35" viewBox="0 0 36 35" fill="none" xmlns="http://www.w3.org/2000/svg">
<circle cx="18.1834" cy="17.551" r="17.449" fill="#E5BA73"/>
<g clip-path="url(#clip0_971_466)">
<path d="M26.5569 13.6076C26.516 12.6804 26.3658 12.0431 26.1506 11.4907C25.9286 10.9045 25.5872 10.3796 25.1399 9.94327C24.7027 9.50014 24.1734 9.1558 23.5929 8.93771C23.0365 8.72296 22.4013 8.57298 21.4725 8.53215C20.5368 8.48777 20.2398 8.47754 17.8666 8.47754C15.4934 8.47754 15.1963 8.48777 14.2641 8.52867C13.3353 8.56957 12.6968 8.71962 12.1437 8.93423C11.5562 9.1558 11.0304 9.49666 10.5933 9.94327C10.1494 10.3796 9.80462 10.9079 9.58598 11.4874C9.37086 12.0431 9.22065 12.677 9.1797 13.6041C9.13528 14.5382 9.125 14.8347 9.125 17.2037C9.125 19.5728 9.13528 19.8693 9.17622 20.7999C9.2172 21.727 9.36751 22.3644 9.58267 22.9167C9.80462 23.503 10.1494 24.0279 10.5933 24.4642C11.0304 24.9073 11.5597 25.2517 12.1402 25.4698C12.6968 25.6845 13.3318 25.8345 14.2608 25.8753C15.1928 25.9164 15.4901 25.9265 17.8633 25.9265C20.2364 25.9265 20.5335 25.9164 21.4657 25.8753C22.3945 25.8345 23.033 25.6845 23.5861 25.4698C24.1671 25.2455 24.6947 24.9026 25.1352 24.463C25.5756 24.0233 25.9192 23.4967 26.1438 22.9167C26.3588 22.3611 26.5092 21.727 26.5501 20.7999C26.5911 19.8693 26.6013 19.5728 26.6013 17.2037C26.6013 14.8347 26.5978 14.5382 26.5569 13.6076ZM24.9828 20.7317C24.9452 21.5839 24.8018 22.044 24.6823 22.3508C24.3886 23.111 23.7842 23.7143 23.0227 24.0075C22.7154 24.1268 22.2511 24.2699 21.4008 24.3073C20.4788 24.3484 20.2023 24.3585 17.87 24.3585C15.5378 24.3585 15.2578 24.3484 14.3392 24.3073C13.4855 24.2699 13.0245 24.1268 12.7172 24.0075C12.3383 23.8677 11.9934 23.6461 11.7134 23.3564C11.4231 23.0735 11.2012 22.7326 11.0611 22.3543C10.9416 22.0475 10.7982 21.5839 10.7607 20.7352C10.7196 19.8148 10.7095 19.5387 10.7095 17.2105C10.7095 14.8824 10.7196 14.6029 10.7607 13.686C10.7982 12.8339 10.9416 12.3737 11.0611 12.0669C11.2012 11.6885 11.4231 11.3442 11.7168 11.0647C12.0001 10.7749 12.3416 10.5534 12.7207 10.4137C13.028 10.2944 13.4925 10.1512 14.3427 10.1137C15.2646 10.0728 15.5413 10.0626 17.8734 10.0626C20.2091 10.0626 20.4856 10.0728 21.4042 10.1137C22.2579 10.1513 22.7189 10.2944 23.0262 10.4137C23.4051 10.5534 23.7501 10.7749 24.03 11.0647C24.3203 11.3476 24.5422 11.6885 24.6823 12.0669C24.8018 12.3737 24.9452 12.8372 24.9828 13.686C25.0238 14.6064 25.034 14.8824 25.034 17.2105C25.034 19.5387 25.0238 19.8114 24.9828 20.7317Z" fill="#212429"/>
<path d="M17.8672 12.7214C15.3883 12.7214 13.377 14.7291 13.377 17.2038C13.377 19.6786 15.3883 21.6862 17.8672 21.6862C20.3463 21.6862 22.3575 19.6786 22.3575 17.2038C22.3575 14.7291 20.3463 12.7214 17.8672 12.7214ZM17.8672 20.1114C16.259 20.1114 14.9545 18.8094 14.9545 17.2038C14.9545 15.5983 16.259 14.2963 17.8672 14.2963C19.4756 14.2963 20.78 15.5983 20.78 17.2038C20.78 18.8094 19.4756 20.1114 17.8672 20.1114ZM23.5835 12.5442C23.5835 13.1221 23.1141 13.5907 22.535 13.5907C21.9561 13.5907 21.4868 13.1221 21.4868 12.5442C21.4868 11.9662 21.9561 11.4978 22.5351 11.4978C23.1141 11.4978 23.5835 11.9662 23.5835 12.5442Z" fill="#212429"/>
</g>
<defs>
<clipPath id="clip0_971_466">
<rect width="17.449" height="17.449" fill="white" transform="translate(9.10938 8.47754)"/>
</clipPath>
</defs>
</svg>
