<svg width="35" height="35" viewBox="0 0 35 35" fill="none" xmlns="http://www.w3.org/2000/svg">
<circle cx="17.5505" cy="17.551" r="17.449" fill="#E5BA73"/>
<path d="M25.9268 25.9268V19.7917C25.9268 16.7766 25.2777 14.4733 21.76 14.4733C20.0639 14.4733 18.9333 15.3946 18.4726 16.274H18.4307V14.7455H15.1015V25.9268H18.5773V20.378C18.5773 18.9123 18.8495 17.5094 20.6502 17.5094C22.43 17.5094 22.451 19.1636 22.451 20.4618V25.9059H25.9268V25.9268ZM9.44799 14.7455H12.9238V25.9268H9.44799V14.7455ZM11.1859 9.17578C10.0761 9.17578 9.17578 10.0761 9.17578 11.1859C9.17578 12.2957 10.0761 13.217 11.1859 13.217C12.2957 13.217 13.196 12.2957 13.196 11.1859C13.196 10.0761 12.2957 9.17578 11.1859 9.17578Z" fill="#212429"/>
</svg>
