<svg width="36" height="35" viewBox="0 0 36 35" fill="none" xmlns="http://www.w3.org/2000/svg">
<circle cx="17.8162" cy="17.551" r="17.449" fill="#E5BA73"/>
<g clip-path="url(#clip0_971_461)">
<path d="M26.1931 11.7919C25.5442 12.0765 24.8528 12.2652 24.132 12.3568C24.8735 11.914 25.4395 11.2183 25.7056 10.3796C25.0142 10.7919 24.2508 11.083 23.4373 11.2455C22.7808 10.5465 21.8451 10.1135 20.8243 10.1135C18.8438 10.1135 17.2494 11.721 17.2494 13.6917C17.2494 13.9752 17.2734 14.2478 17.3323 14.5074C14.3584 14.3624 11.7268 12.937 9.95903 10.7657C9.6504 11.3011 9.46936 11.914 9.46936 12.5738C9.46936 13.8127 10.1073 14.9109 11.0583 15.5467C10.4836 15.5358 9.91977 15.3689 9.4421 15.1061V15.1454C9.4421 16.8837 10.6821 18.3276 12.3081 18.6603C12.0169 18.7399 11.6996 18.778 11.3702 18.778C11.1412 18.778 10.91 18.7649 10.693 18.717C11.1565 20.1336 12.4717 21.1751 14.0355 21.2089C12.8185 22.161 11.2732 22.7346 9.60023 22.7346C9.30687 22.7346 9.02551 22.7215 8.74414 22.6855C10.3287 23.7074 12.2067 24.2908 14.2318 24.2908C20.8145 24.2908 24.4133 18.838 24.4133 14.1115C24.4133 13.9534 24.4079 13.8007 24.4002 13.6491C25.1102 13.1453 25.7067 12.516 26.1931 11.7919Z" fill="#212429"/>
</g>
<defs>
<clipPath id="clip0_971_461">
<rect width="17.449" height="17.449" fill="white" transform="translate(8.74219 8.47754)"/>
</clipPath>
</defs>
</svg>
