<svg width="50" height="50" viewBox="0 0 50 50" fill="none" xmlns="http://www.w3.org/2000/svg">
<rect x="0.5" y="0.5" width="49" height="49" rx="24.5" stroke="white"/>
<g clip-path="url(#clip0_1149_1029)">
<path d="M25 25C24.9261 25.0002 24.8529 24.987 24.7837 24.9612L12.9087 20.5862C12.7889 20.5418 12.6856 20.4618 12.6127 20.3569C12.5398 20.252 12.5008 20.1273 12.501 19.9995C12.5011 19.8718 12.5404 19.7472 12.6135 19.6424C12.6866 19.5377 12.7901 19.4579 12.91 19.4137L21.035 16.4262C21.188 16.3797 21.353 16.3935 21.4961 16.4647C21.6393 16.536 21.7498 16.6593 21.8049 16.8094C21.8601 16.9595 21.8557 17.125 21.7927 17.272C21.7298 17.419 21.6129 17.5363 21.4662 17.6L14.935 20L25 23.7087L35.065 20L28.5337 17.5987C28.3781 17.5415 28.2515 17.4248 28.1819 17.2743C28.1123 17.1238 28.1053 16.9519 28.1625 16.7962C28.2196 16.6406 28.3363 16.514 28.4868 16.4444C28.6373 16.3748 28.8093 16.3678 28.965 16.425L37.09 19.4125C37.2102 19.4564 37.3141 19.5362 37.3876 19.641C37.461 19.7459 37.5005 19.8708 37.5006 19.9989C37.5008 20.1269 37.4616 20.2519 37.3883 20.357C37.3151 20.462 37.2114 20.542 37.0912 20.5862L25.2162 24.9612C25.147 24.987 25.0738 25.0002 25 25ZM25 40C24.9265 40.0003 24.8536 39.9872 24.785 39.9612L18.1475 37.5237C17.9918 37.4665 17.8653 37.3498 17.7956 37.1993C17.726 37.0488 17.719 36.8769 17.7762 36.7212C17.8334 36.5656 17.9501 36.439 18.1006 36.3694C18.2511 36.2998 18.4231 36.2928 18.5787 36.35L25 38.7087L31.4225 36.35C31.5781 36.2928 31.7501 36.2998 31.9006 36.3694C32.0511 36.439 32.1678 36.5656 32.225 36.7212C32.2821 36.8769 32.2752 37.0488 32.2055 37.1993C32.1359 37.3498 32.0094 37.4665 31.8537 37.5237L25.2162 39.9612C25.147 39.987 25.0738 40.0002 25 40Z" fill="white"/>
<path d="M13.125 32.2C12.9592 32.2 12.8003 32.1342 12.6831 32.0169C12.5658 31.8997 12.5 31.7408 12.5 31.575V20C12.5 19.8342 12.5658 19.6753 12.6831 19.5581C12.8003 19.4408 12.9592 19.375 13.125 19.375C13.2908 19.375 13.4497 19.4408 13.5669 19.5581C13.6842 19.6753 13.75 19.8342 13.75 20V31.575C13.75 31.7408 13.6842 31.8997 13.5669 32.0169C13.4497 32.1342 13.2908 32.2 13.125 32.2ZM36.875 32.2C36.7092 32.2 36.5503 32.1342 36.4331 32.0169C36.3158 31.8997 36.25 31.7408 36.25 31.575V20C36.25 19.8342 36.3158 19.6753 36.4331 19.5581C36.5503 19.4408 36.7092 19.375 36.875 19.375C37.0408 19.375 37.1997 19.4408 37.3169 19.5581C37.4342 19.6753 37.5 19.8342 37.5 20V31.575C37.5 31.7408 37.4342 31.8997 37.3169 32.0169C37.1997 32.1342 37.0408 32.2 36.875 32.2ZM25 20C24.8342 20 24.6753 19.9342 24.5581 19.8169C24.4408 19.6997 24.375 19.5408 24.375 19.375V14.375C24.375 14.2092 24.4408 14.0503 24.5581 13.9331C24.6753 13.8158 24.8342 13.75 25 13.75C25.1658 13.75 25.3247 13.8158 25.4419 13.9331C25.5592 14.0503 25.625 14.2092 25.625 14.375V19.375C25.625 19.5408 25.5592 19.6997 25.4419 19.8169C25.3247 19.9342 25.1658 20 25 20ZM36.175 36.8C36.0092 36.8 35.8501 36.7344 35.7325 36.6175L32.6825 33.5675C32.5687 33.4496 32.5057 33.2917 32.5071 33.1279C32.5085 32.964 32.5742 32.8072 32.6901 32.6914C32.806 32.5755 32.9628 32.5098 33.1266 32.5083C33.2905 32.5069 33.4484 32.5699 33.5663 32.6838L36.6163 35.7337C36.7034 35.8212 36.7627 35.9324 36.7867 36.0534C36.8107 36.1745 36.7983 36.3 36.7511 36.414C36.7039 36.528 36.624 36.6255 36.5215 36.6942C36.419 36.7629 36.2984 36.7997 36.175 36.8ZM13.825 36.8C13.7015 36.8 13.5807 36.7633 13.478 36.6947C13.3753 36.6261 13.2952 36.5287 13.2479 36.4146C13.2005 36.3005 13.188 36.1749 13.212 36.0538C13.236 35.9326 13.2953 35.8212 13.3825 35.7337L16.4325 32.6838C16.5504 32.5699 16.7083 32.5069 16.8721 32.5083C17.036 32.5098 17.1928 32.5755 17.3086 32.6914C17.4245 32.8072 17.4902 32.964 17.4917 33.1279C17.4931 33.2917 17.4301 33.4496 17.3163 33.5675L14.2663 36.6175C14.2083 36.6755 14.1395 36.7214 14.0638 36.7527C13.9881 36.7841 13.9069 36.8001 13.825 36.8ZM25 40C24.8342 40 24.6753 39.9342 24.5581 39.8169C24.4408 39.6997 24.375 39.5408 24.375 39.375V24.375C24.375 24.2092 24.4408 24.0503 24.5581 23.9331C24.6753 23.8158 24.8342 23.75 25 23.75C25.1658 23.75 25.3247 23.8158 25.4419 23.9331C25.5592 24.0503 25.625 24.2092 25.625 24.375V39.375C25.625 39.5408 25.5592 39.6997 25.4419 39.8169C25.3247 39.9342 25.1658 40 25 40Z" fill="white"/>
<path d="M25 15C23.6213 15 22.5 13.8788 22.5 12.5C22.5 11.1212 23.6213 10 25 10C26.3787 10 27.5 11.1212 27.5 12.5C27.5 13.8788 26.3787 15 25 15ZM25 11.25C24.3112 11.25 23.75 11.8112 23.75 12.5C23.75 13.1888 24.3112 13.75 25 13.75C25.6888 13.75 26.25 13.1888 26.25 12.5C26.25 11.8112 25.6888 11.25 25 11.25ZM37.5 40C36.1213 40 35 38.8787 35 37.5C35 36.1213 36.1213 35 37.5 35C38.8787 35 40 36.1213 40 37.5C40 38.8787 38.8787 40 37.5 40ZM37.5 36.25C36.8113 36.25 36.25 36.8113 36.25 37.5C36.25 38.1887 36.8113 38.75 37.5 38.75C38.1887 38.75 38.75 38.1887 38.75 37.5C38.75 36.8113 38.1887 36.25 37.5 36.25ZM12.5 40C11.1212 40 10 38.8787 10 37.5C10 36.1213 11.1212 35 12.5 35C13.8788 35 15 36.1213 15 37.5C15 38.8787 13.8788 40 12.5 40ZM12.5 36.25C11.8112 36.25 11.25 36.8113 11.25 37.5C11.25 38.1887 11.8112 38.75 12.5 38.75C13.1888 38.75 13.75 38.1887 13.75 37.5C13.75 36.8113 13.1888 36.25 12.5 36.25Z" fill="white"/>
</g>
<defs>
<clipPath id="clip0_1149_1029">
<rect width="30" height="30" fill="white" transform="translate(10 10)"/>
</clipPath>
</defs>
</svg>
