<svg width="4238" height="1226" viewBox="0 0 4238 1226" fill="none" xmlns="http://www.w3.org/2000/svg">
<path fill-rule="evenodd" clip-rule="evenodd" d="M357.5 1163.64C370.754 1166.98 384.266 1169.68 398 1171.69V328.5L520.5 401V1171.16C532.515 1169.29 544.356 1166.9 556 1164.01V664L680.5 736.5V1109.62C791.608 1036.84 865 911.24 865 768.499C865 642.508 807.822 529.871 718 455.123V392.355C837.048 474.958 915 612.625 915 768.499C915 1021.17 710.17 1226 457.5 1226C204.83 1226 0 1021.17 0 768.499C0 613.5 77.0802 476.504 195 393.751V456.798C106.33 531.549 50 643.445 50 768.499C50 910.597 122.732 1035.71 233 1108.63V0L357.5 70V1163.64Z" fill="#E5BA73"/>
<rect x="1122" y="33" width="60" height="1160" fill="#E5BA73"/>
<path d="M1344.8 377L1372.8 347.4V469.6L1358.8 452H1467.6V500H1358.8L1372.8 482.4V605.6L1344.8 576H1489.8V624H1310.4V329H1489.8V377H1344.8ZM1668.73 480.8L1670.53 433.4L1788.53 624H1720.53L1635.93 481L1663.73 484.6L1615.33 549.6L1620.73 510.6V624H1558.53V329H1620.73V482.2L1609.13 475.8L1716.93 329H1782.53L1668.73 480.8ZM1829.19 624L1902.79 328.6H2000.99L2074.19 624H2010.59L1951.79 366.4H1952.19L1892.79 624H1829.19ZM1881.99 555.6V507.2H2021.99V555.6H1881.99ZM2309.13 329L2223.53 522.4V624H2161.73V522.4L2076.53 329H2142.13L2205.13 491.4H2180.33L2243.33 329H2309.13ZM2311.38 624L2384.98 328.6H2483.18L2556.38 624H2492.78L2433.98 366.4H2434.38L2374.98 624H2311.38ZM2364.18 555.6V507.2H2504.18V555.6H2364.18ZM2831.96 628.8C2810.63 628.8 2791.83 625.4 2775.56 618.6C2759.43 611.8 2746.76 601.667 2737.56 588.2C2728.5 574.6 2723.96 557.733 2723.96 537.6C2723.96 535.467 2723.96 533.533 2723.96 531.8C2723.96 529.933 2723.96 527.933 2723.96 525.8H2786.16C2786.16 527.8 2786.16 529.6 2786.16 531.2C2786.16 532.667 2786.16 534.4 2786.16 536.4C2786.16 550.133 2790.03 560.667 2797.76 568C2805.5 575.333 2816.96 579 2832.16 579C2847.5 579 2859.3 576.6 2867.56 571.8C2875.83 566.867 2879.96 558.8 2879.96 547.6C2879.96 539.733 2876.83 532.8 2870.56 526.8C2864.43 520.8 2856.03 515.467 2845.36 510.8C2834.83 506 2822.76 501.533 2809.16 497.4C2794.36 492.733 2780.63 486.6 2767.96 479C2755.3 471.4 2745.1 461.733 2737.36 450C2729.76 438.267 2725.96 423.8 2725.96 406.6C2725.96 389.267 2730.56 374.533 2739.76 362.4C2748.96 350.133 2761.5 340.8 2777.36 334.4C2793.23 327.867 2811.16 324.6 2831.16 324.6C2852.1 324.6 2870.56 327.867 2886.56 334.4C2902.7 340.8 2915.3 350.467 2924.36 363.4C2933.56 376.2 2938.16 392.2 2938.16 411.4C2938.16 413.533 2938.16 415.533 2938.16 417.4C2938.16 419.133 2938.16 421.133 2938.16 423.4H2876.16C2876.16 421.933 2876.16 420.4 2876.16 418.8C2876.16 417.2 2876.16 415.667 2876.16 414.2C2876.16 401.267 2872.56 391.333 2865.36 384.4C2858.3 377.467 2847.16 374 2831.96 374C2817.3 374 2805.9 376.667 2797.76 382C2789.76 387.333 2785.76 395.533 2785.76 406.6C2785.76 414.6 2788.63 421.4 2794.36 427C2800.23 432.6 2808.23 437.6 2818.36 442C2828.5 446.4 2840.03 450.8 2852.96 455.2C2870.56 461.333 2885.9 468.133 2898.96 475.6C2912.16 482.933 2922.36 492.2 2929.56 503.4C2936.76 514.467 2940.36 528.6 2940.36 545.8C2940.36 563.4 2935.83 578.4 2926.76 590.8C2917.7 603.2 2904.96 612.667 2888.56 619.2C2872.3 625.6 2853.43 628.8 2831.96 628.8ZM3196.98 377H3099.58L3124.38 347.4V624H3062.58V347.4L3088.18 377H2990.18V329H3196.98V377ZM3475.98 517.4C3475.98 554.733 3466.11 582.667 3446.38 601.2C3426.64 619.6 3399.64 628.8 3365.38 628.8C3330.98 628.8 3303.91 619.6 3284.18 601.2C3264.58 582.667 3254.78 554.733 3254.78 517.4C3254.78 512.333 3254.78 506.933 3254.78 501.2C3254.78 495.467 3254.78 489.467 3254.78 483.2V329H3316.98V492C3316.98 497.067 3316.98 501.8 3316.98 506.2C3316.98 510.6 3316.98 514.667 3316.98 518.4C3316.98 539.2 3320.78 554.533 3328.38 564.4C3335.98 574.133 3348.31 579 3365.38 579C3382.31 579 3394.64 574.133 3402.38 564.4C3410.11 554.533 3413.98 539.2 3413.98 518.4V329H3475.98V517.4ZM3545.09 624V329H3640.49C3660.22 329 3678.15 332.6 3694.29 339.8C3710.55 346.867 3724.49 356.933 3736.09 370C3747.82 382.933 3756.82 398.4 3763.09 416.4C3769.35 434.4 3772.49 454.267 3772.49 476C3772.49 497.733 3769.35 517.667 3763.09 535.8C3756.82 553.933 3747.82 569.6 3736.09 582.8C3724.49 595.867 3710.55 606 3694.29 613.2C3678.15 620.4 3660.22 624 3640.49 624H3545.09ZM3607.49 605.6L3579.49 576H3632.49C3646.89 576 3659.89 572 3671.49 564C3683.22 555.867 3692.49 544.333 3699.29 529.4C3706.09 514.333 3709.49 496.533 3709.49 476C3709.49 455.333 3706.09 437.667 3699.29 423C3692.49 408.2 3683.22 396.867 3671.49 389C3659.89 381 3646.89 377 3632.49 377H3579.49L3607.49 347.4V605.6ZM3833.45 624V329H3894.65V624H3833.45ZM4088.4 628.8C4070 628.8 4052.8 625.467 4036.8 618.8C4020.8 612.133 4006.74 602.333 3994.6 589.4C3982.47 576.467 3972.94 560.533 3966 541.6C3959.07 522.533 3955.6 500.733 3955.6 476.2C3955.6 451.533 3959 429.8 3965.8 411C3972.74 392.067 3982.27 376.2 3994.4 363.4C4006.54 350.6 4020.6 340.933 4036.6 334.4C4052.6 327.867 4069.87 324.6 4088.4 324.6C4106.8 324.6 4124 327.867 4140 334.4C4156.14 340.933 4170.27 350.6 4182.4 363.4C4194.54 376.2 4204 392.067 4210.8 411C4217.6 429.8 4221 451.533 4221 476.2C4221 500.733 4217.54 522.533 4210.6 541.6C4203.8 560.533 4194.27 576.467 4182 589.4C4169.87 602.333 4155.74 612.133 4139.6 618.8C4123.6 625.467 4106.54 628.8 4088.4 628.8ZM4088.4 579C4100.8 579 4112.27 575.6 4122.8 568.8C4133.47 562 4142 551.067 4148.4 536C4154.8 520.8 4158 500.867 4158 476.2C4158 451.4 4154.74 431.533 4148.2 416.6C4141.8 401.667 4133.34 390.933 4122.8 384.4C4112.27 377.733 4100.8 374.4 4088.4 374.4C4076 374.4 4064.47 377.733 4053.8 384.4C4043.27 390.933 4034.8 401.667 4028.4 416.6C4022 431.533 4018.8 451.4 4018.8 476.2C4018.8 501 4022 520.933 4028.4 536C4034.8 551.067 4043.27 562 4053.8 568.8C4064.47 575.6 4076 579 4088.4 579Z" fill="#E5BA73"/>
<path d="M1343.75 896H1316V726H1343.75V896ZM1440.53 896H1412.78V726H1439.28L1511.53 828.75L1522.78 845.75V726H1551.28V896H1524.28L1448.78 788L1440.53 775.5V896ZM1736.41 726L1740.66 748.25H1682.41V896H1653.91V748.25H1600.41V726H1736.41ZM1903.42 896H1790.17V726H1888.42L1892.67 748H1817.92V798.75H1874.67L1878.92 821H1817.92V874H1899.17L1903.42 896ZM2005.31 749.5H1983.06V806.75H2005.06C2012.06 806.75 2018.31 805.833 2023.81 804C2029.47 802 2033.97 799 2037.31 795C2040.81 791 2042.56 785.5 2042.56 778.5C2042.56 771.333 2040.97 765.667 2037.81 761.5C2034.81 757.333 2030.56 754.333 2025.06 752.5C2019.56 750.5 2012.97 749.5 2005.31 749.5ZM1955.31 726H2006.06C2018.22 726 2029.31 727.833 2039.31 731.5C2049.31 735 2057.22 740.5 2063.06 748C2068.89 755.5 2071.81 765.25 2071.81 777.25C2071.81 788.25 2069.06 797.5 2063.56 805C2058.06 812.333 2051.06 817.917 2042.56 821.75L2084.56 896H2054.56L2017.56 829.25C2015.56 829.417 2013.06 829.583 2010.06 829.75C2007.06 829.75 2004.31 829.75 2001.81 829.75H1983.06V896H1955.31V726ZM2161.87 896H2134.12V726H2161.87V896ZM2300.14 899.5C2283.64 899.5 2269.23 895.667 2256.89 888C2244.56 880.333 2235.06 869.917 2228.39 856.75C2221.73 843.417 2218.39 828.5 2218.39 812C2218.39 794.667 2221.89 779.333 2228.89 766C2235.89 752.5 2245.56 741.917 2257.89 734.25C2270.23 726.417 2284.48 722.333 2300.64 722C2317.31 722 2331.73 725.917 2343.89 733.75C2356.23 741.417 2365.73 751.833 2372.39 765C2379.23 778.167 2382.64 793.083 2382.64 809.75C2382.64 827.083 2379.14 842.5 2372.14 856C2365.14 869.333 2355.48 879.833 2343.14 887.5C2330.81 895.167 2316.48 899.167 2300.14 899.5ZM2299.89 875.75C2310.06 875.75 2319.14 873.167 2327.14 868C2335.14 862.667 2341.48 855.083 2346.14 845.25C2350.81 835.417 2353.14 823.667 2353.14 810C2353.14 797.667 2350.98 786.667 2346.64 777C2342.31 767.333 2336.23 759.75 2328.39 754.25C2320.56 748.75 2311.39 746 2300.89 746C2291.06 746 2282.06 748.833 2273.89 754.5C2265.89 760 2259.48 767.667 2254.64 777.5C2249.98 787.167 2247.64 798.5 2247.64 811.5C2247.64 824 2249.81 835.083 2254.14 844.75C2258.48 854.417 2264.56 862 2272.39 867.5C2280.39 873 2289.56 875.75 2299.89 875.75ZM2489.24 749.5H2466.99V806.75H2488.99C2495.99 806.75 2502.24 805.833 2507.74 804C2513.41 802 2517.91 799 2521.24 795C2524.74 791 2526.49 785.5 2526.49 778.5C2526.49 771.333 2524.91 765.667 2521.74 761.5C2518.74 757.333 2514.49 754.333 2508.99 752.5C2503.49 750.5 2496.91 749.5 2489.24 749.5ZM2439.24 726H2489.99C2502.16 726 2513.24 727.833 2523.24 731.5C2533.24 735 2541.16 740.5 2546.99 748C2552.83 755.5 2555.74 765.25 2555.74 777.25C2555.74 788.25 2552.99 797.5 2547.49 805C2541.99 812.333 2534.99 817.917 2526.49 821.75L2568.49 896H2538.49L2501.49 829.25C2499.49 829.417 2496.99 829.583 2493.99 829.75C2490.99 829.75 2488.24 829.75 2485.74 829.75H2466.99V896H2439.24V726ZM2762.19 896H2699.94V726H2762.69C2780.35 726 2794.77 729.667 2805.94 737C2817.27 744.333 2825.69 754.333 2831.19 767C2836.85 779.5 2839.69 793.833 2839.69 810C2839.69 827 2836.69 842 2830.69 855C2824.69 867.833 2815.94 877.833 2804.44 885C2792.94 892.167 2778.85 895.833 2762.19 896ZM2763.69 749.75H2727.69V872.5H2761.69C2771.69 872.5 2780.27 870.25 2787.44 865.75C2794.77 861.25 2800.44 854.417 2804.44 845.25C2808.6 836.083 2810.69 824.417 2810.69 810.25C2810.69 797.917 2809.02 787.25 2805.69 778.25C2802.35 769.25 2797.19 762.25 2790.19 757.25C2783.35 752.25 2774.52 749.75 2763.69 749.75ZM3009.33 896H2896.08V726H2994.33L2998.58 748H2923.83V798.75H2980.58L2984.83 821H2923.83V874H3005.08L3009.33 896ZM3051.46 885.75L3057.96 863.25C3061.3 864.75 3065.3 866.417 3069.96 868.25C3074.63 869.917 3079.55 871.417 3084.71 872.75C3090.05 873.917 3095.21 874.5 3100.21 874.5C3107.71 874.5 3113.96 873.667 3118.96 872C3123.96 870.333 3127.71 867.917 3130.21 864.75C3132.88 861.417 3134.21 857.5 3134.21 853C3134.21 848.167 3132.55 844 3129.21 840.5C3125.88 837 3121.3 833.667 3115.46 830.5C3109.8 827.167 3103.3 823.75 3095.96 820.25C3089.3 816.75 3083.05 813.25 3077.21 809.75C3071.55 806.083 3066.55 802.167 3062.21 798C3058.05 793.833 3054.71 789.25 3052.21 784.25C3049.88 779.083 3048.71 773.25 3048.71 766.75C3048.71 758.25 3050.96 750.667 3055.46 744C3059.96 737.333 3066.46 732 3074.96 728C3083.46 724 3093.71 722 3105.71 722C3114.21 722 3122.55 723.25 3130.71 725.75C3138.88 728.25 3145.96 731 3151.96 734L3142.71 756.5C3139.55 754.833 3136.13 753.25 3132.46 751.75C3128.96 750.25 3125.05 749.083 3120.71 748.25C3116.55 747.25 3111.88 746.75 3106.71 746.75C3098.38 746.75 3091.38 748.417 3085.71 751.75C3080.05 754.917 3077.21 759.833 3077.21 766.5C3077.21 771.5 3078.71 775.833 3081.71 779.5C3084.88 783 3089.38 786.333 3095.21 789.5C3101.05 792.667 3107.8 796.25 3115.46 800.25C3121.96 803.583 3128.05 807 3133.71 810.5C3139.55 813.833 3144.63 817.5 3148.96 821.5C3153.3 825.5 3156.71 830.083 3159.21 835.25C3161.71 840.25 3162.96 846.167 3162.96 853C3162.96 862 3160.46 869.917 3155.46 876.75C3150.63 883.583 3143.63 889.083 3134.46 893.25C3125.3 897.25 3113.96 899.25 3100.46 899.25C3096.96 899.25 3092.88 898.833 3088.21 898C3083.55 897.167 3078.8 896.167 3073.96 895C3069.3 893.667 3064.96 892.25 3060.96 890.75C3056.96 889.083 3053.8 887.417 3051.46 885.75ZM3244.58 896H3216.83V726H3244.58V896ZM3375.11 826.5L3377.36 805H3436.86V887.25C3432.86 889.417 3428.11 891.5 3422.61 893.5C3417.11 895.333 3411.19 896.75 3404.86 897.75C3398.69 898.917 3392.36 899.5 3385.86 899.5C3368.36 899.5 3353.19 895.667 3340.36 888C3327.69 880.167 3317.94 869.667 3311.11 856.5C3304.44 843.167 3301.11 828.333 3301.11 812C3301.11 798.833 3303.27 786.833 3307.61 776C3311.94 765.167 3318.11 755.75 3326.11 747.75C3334.11 739.583 3343.44 733.333 3354.11 729C3364.77 724.667 3376.44 722.5 3389.11 722.5C3392.61 722.5 3397.02 722.833 3402.36 723.5C3407.69 724.167 3413.19 725.333 3418.86 727C3424.69 728.5 3429.86 730.583 3434.36 733.25L3425.61 753.25C3421.11 751.75 3417.11 750.5 3413.61 749.5C3410.11 748.5 3406.52 747.75 3402.86 747.25C3399.36 746.583 3394.94 746.25 3389.61 746.25C3381.77 746.25 3374.27 747.667 3367.11 750.5C3359.94 753.333 3353.52 757.5 3347.86 763C3342.36 768.333 3338.02 775.083 3334.86 783.25C3331.86 791.417 3330.36 800.917 3330.36 811.75C3330.36 824.583 3332.69 835.917 3337.36 845.75C3342.02 855.417 3348.52 862.833 3356.86 868C3365.19 873.167 3374.61 875.75 3385.11 875.75C3390.77 875.75 3395.77 875.417 3400.11 874.75C3404.44 874.083 3408.27 873.25 3411.61 872.25V826.5H3375.11ZM3523.34 896H3495.59V726H3522.09L3594.34 828.75L3605.59 845.75V726H3634.09V896H3607.09L3531.59 788L3523.34 775.5V896Z" fill="#E5BA73"/>
</svg>
