<svg width="109" height="109" viewBox="0 0 109 109" fill="none" xmlns="http://www.w3.org/2000/svg">
<g clip-path="url(#clip0_1182_1067)">
<path d="M54.4879 38.4137C55.9783 38.4137 57.1853 37.2061 57.1853 35.7164C57.1853 34.2269 55.9783 33.019 54.4879 33.019C42.5711 33.019 32.9102 42.6799 32.9102 54.5976C32.9102 66.5147 42.5711 76.1755 54.4879 76.1755C66.4058 76.1755 76.0667 66.5147 76.0667 54.5976C76.0667 53.1074 74.8589 51.9005 73.3694 51.9005C71.8799 51.9005 70.672 53.1074 70.672 54.5976C70.672 63.5356 63.4268 70.7817 54.4879 70.7817C45.5501 70.7817 38.304 63.5356 38.304 54.5976C38.304 45.659 45.5501 38.4137 54.4879 38.4137Z" fill="white"/>
<path d="M105.952 38.5765C105.483 37.1613 103.956 36.394 102.54 36.8622C101.157 37.3199 100.387 38.7921 100.8 40.1889C108.866 65.8761 94.5821 93.2383 68.8951 101.305C43.2089 109.371 15.8465 95.0874 7.78023 69.4004C-0.287087 43.7134 13.9976 16.351 39.6838 8.28458C49.192 5.29894 59.3869 5.29894 68.8951 8.28458C70.3227 8.71496 71.8287 7.90707 72.2593 6.47951C72.6831 5.07331 71.9057 3.58717 70.5086 3.13289C41.9863 -5.8159 11.6093 10.0518 2.66067 38.5749C-6.28814 67.0971 9.58022 97.4741 38.1027 106.423C66.6258 115.371 97.002 99.5037 105.951 70.9807C109.26 60.4328 109.26 49.1246 105.951 38.5765H105.952Z" fill="white"/>
<path d="M59.6234 19.9066C59.6373 18.3707 58.4576 17.087 56.926 16.9721C56.1205 16.9036 55.3143 16.8351 54.4871 16.8351C33.6314 16.8351 16.7246 33.7418 16.7246 54.5975C16.7246 75.4526 33.6314 92.3593 54.4871 92.3593C75.3422 92.3593 92.249 75.4526 92.249 54.5977C92.249 53.6219 92.1896 52.6472 92.0699 51.679C91.8541 50.1985 90.4795 49.1732 88.999 49.3889C87.5186 49.6036 86.4933 50.9793 86.7082 52.4598C86.7164 52.5158 86.7263 52.571 86.7378 52.6273C86.7966 53.2808 86.8543 53.9284 86.8543 54.596C86.8551 72.4727 72.364 86.9638 54.488 86.9655C36.6113 86.9663 22.1199 72.4742 22.1193 54.5984C22.1185 36.7226 36.6088 22.2304 54.4856 22.2298H54.4863C55.1556 22.2298 55.8039 22.2875 56.4559 22.3453L56.9614 22.3875C58.3709 22.4478 59.5621 21.354 59.6217 19.9446C59.6225 19.9313 59.6225 19.919 59.6234 19.9066Z" fill="white"/>
<path d="M70.6701 24.9269V34.5994L52.5792 52.6901C51.5078 53.7251 51.4782 55.4329 52.5132 56.5043C53.5484 57.5757 55.2562 57.6055 56.3274 56.5705C56.3498 56.5489 56.3721 56.5267 56.3936 56.5043L74.4845 38.4136H84.1566C84.8721 38.4136 85.5578 38.1294 86.0643 37.6231L102.248 21.439C103.301 20.3858 103.301 18.6782 102.248 17.6248C101.997 17.3744 101.7 17.1757 101.373 17.0402C101.046 16.9047 100.695 16.835 100.341 16.8351H92.2487V8.74301C92.2487 7.25348 91.0411 6.04566 89.5505 6.04651C88.8357 6.04668 88.1502 6.33073 87.6448 6.83621L71.4606 23.0203C71.21 23.2705 71.0112 23.5677 70.8755 23.8949C70.7398 24.222 70.67 24.5727 70.6701 24.9269ZM76.0648 26.044L86.854 15.2546V19.5324C86.854 21.0219 88.0618 22.2297 89.5513 22.2297H93.8292L83.0398 33.0189H76.0648V26.044Z" fill="white"/>
</g>
<defs>
<clipPath id="clip0_1182_1067">
<rect width="108.283" height="108.283" fill="white" transform="translate(0.166016 0.636353)"/>
</clipPath>
</defs>
</svg>
