<svg width="109" height="109" viewBox="0 0 109 109" fill="none" xmlns="http://www.w3.org/2000/svg">
<path d="M106.941 52.7011C106.707 52.43 101.086 45.9886 91.8752 39.4952C79.5616 30.815 66.6465 26.2267 54.5264 26.2267C42.4063 26.2267 29.4912 30.815 17.1775 39.4952C7.96713 45.9886 2.34592 52.43 2.11138 52.7011L0.384766 54.7779L2.11138 56.8548C2.34613 57.1259 7.96713 63.5673 17.1775 70.0607C29.4912 78.7409 42.4063 83.3292 54.5264 83.3292C66.6465 83.3292 79.5616 78.7409 91.8752 70.0607C101.086 63.5673 106.707 57.1259 106.941 56.8548L108.668 54.7779L106.941 52.7011ZM76.7329 54.7779C76.7329 66.813 67.1084 76.6425 55.1524 76.9754C54.9437 76.9779 54.7353 76.9845 54.5264 76.9845C54.3174 76.9845 54.1091 76.9779 53.9004 76.9754C41.9442 76.6425 32.3199 66.8132 32.3199 54.7779C32.3199 42.5347 42.2815 32.5714 54.5264 32.5714C66.7615 32.5714 76.7329 42.5248 76.7329 54.7779ZM8.87168 54.7779C11.1748 52.4532 15.3957 48.4992 20.9647 44.5892C23.794 42.6024 27.1969 40.4784 31.031 38.5758C27.8447 43.1819 25.9751 48.7652 25.9751 54.7779C25.9751 60.7906 27.8447 66.3735 31.031 70.9792C27.1969 69.0775 23.794 66.9534 20.9647 64.9665C15.3949 61.0558 11.1748 57.1018 8.87168 54.7779ZM88.0881 64.9667C85.2585 66.9534 81.8558 69.0774 78.0217 70.9794C81.208 66.3733 83.0776 60.7906 83.0776 54.7779C83.0776 48.7652 81.208 43.1823 78.0217 38.5767C81.8558 40.4784 85.2587 42.6024 88.0881 44.5894C93.657 48.4994 97.878 52.4532 100.181 54.7779C97.878 57.1026 93.657 61.0567 88.0881 64.9667Z" fill="white"/>
<path d="M38.6641 54.7779C38.6641 63.5241 45.7797 70.6397 54.5259 70.6397C63.2721 70.6397 70.3877 63.5241 70.3877 54.7779C70.3877 46.0317 63.2721 38.9161 54.5259 38.9161C45.7797 38.9161 38.6641 46.0317 38.6641 54.7779ZM64.0429 54.7779C64.0429 60.0257 59.7734 64.295 54.5259 64.295C49.2784 64.295 45.0088 60.0254 45.0088 54.7779C45.0088 49.5304 49.2784 45.2609 54.5259 45.2609C59.7734 45.2609 64.0429 49.5304 64.0429 54.7779Z" fill="white"/>
<path d="M54.5284 59.2647L50.0424 54.7788L54.5281 50.292L59.0151 54.7788L54.5284 59.2647ZM51.3543 0.636353H57.699V13.3258H51.3543V0.636353ZM51.3543 96.2301H57.699V108.92H51.3543V96.2301ZM18.6352 14.4006L27.6088 23.3733L23.122 27.859L14.1493 18.8865L18.6352 14.4006ZM90.4173 95.157L81.4446 86.1843L85.9313 81.6976L94.904 90.6703L90.4173 95.157ZM90.4181 14.3997L94.904 18.8857L85.9313 27.8584L81.4456 23.3724L90.4181 14.3997ZM18.6346 95.1562L14.1484 90.6694L23.1211 81.6967L27.6069 86.1835L18.6346 95.1562Z" fill="white"/>
</svg>
