<svg width="469" height="454" viewBox="0 0 469 454" fill="none" xmlns="http://www.w3.org/2000/svg">
<path d="M84.1494 242.354C4.4954 288.342 4.49741 362.904 84.1534 408.893C163.809 454.881 292.956 454.881 372.609 408.893C452.263 362.905 452.261 288.343 372.605 242.354C292.949 196.366 163.803 196.366 84.1494 242.354Z" fill="#FAFAFA"/>
<path d="M197.38 27.5075L193.419 29.4675V20.3055C193.419 13.3885 187.901 11.7295 181.911 15.1885C175.92 18.6475 171.064 27.0585 171.064 33.9765V35.2435C169.705 34.7015 167.95 34.9115 166.03 36.0195C161.719 38.5085 158.224 44.5615 158.224 49.5395V50.1155L152.701 53.3045C149.862 54.9435 147.561 58.9295 147.561 62.2075C147.561 65.4855 149.862 66.8145 152.701 65.1755L197.379 39.3805C200.218 37.7415 202.519 33.7555 202.519 30.4775C202.519 27.1995 200.219 25.8685 197.38 27.5075Z" fill="#F0F0F0"/>
<path d="M266.56 15.7375L259.379 19.8835C259.415 19.5625 259.44 19.2445 259.44 18.9325V16.8525C259.44 13.1505 256.841 11.6505 253.635 13.5005C252.337 14.2505 251.142 15.4385 250.175 16.8275C249.65 12.1725 245.998 10.4385 241.562 12.9995C236.766 15.7685 232.877 22.5035 232.877 28.0415V31.1535C232.877 32.5885 233.142 33.7965 233.612 34.7585L227.648 38.2015C225.87 39.2285 224.428 41.7255 224.428 43.7785C224.428 45.8325 225.87 46.6645 227.648 45.6375L266.56 23.1715C268.339 22.1445 269.78 19.6475 269.78 17.5945C269.78 15.5435 268.338 14.7105 266.56 15.7375Z" fill="#F0F0F0"/>
<path d="M130.468 362.087C137.59 366.199 149.137 366.199 156.258 362.087C163.38 357.975 163.38 351.308 156.258 347.196C149.136 343.084 137.589 343.084 130.468 347.196C123.346 351.308 123.346 357.975 130.468 362.087Z" fill="#E0E0E0"/>
<path d="M101.433 350.491C108.555 354.603 120.101 354.603 127.223 350.491C134.345 346.379 134.345 339.713 127.223 335.601C120.101 331.489 108.555 331.489 101.433 335.601C94.3113 339.713 94.3113 346.379 101.433 350.491Z" fill="#E0E0E0"/>
<path d="M195.859 362.198C194.245 361.266 194.245 358.936 195.859 358.005L326.128 282.812C326.877 282.38 327.8 282.38 328.549 282.812C330.163 283.744 330.163 286.074 328.549 287.006L198.28 362.199C197.531 362.631 196.608 362.631 195.859 362.198Z" fill="#E0E0E0"/>
<path d="M361.013 289.268L353.776 293.446C352.029 294.455 349.876 294.455 348.129 293.446L319.79 277.084C318.172 276.15 318.172 273.813 319.79 272.879L327.027 268.701C328.774 267.692 330.927 267.692 332.674 268.701L361.013 285.063C362.632 285.998 362.632 288.334 361.013 289.268Z" fill="#E0E0E0"/>
<path d="M313.512 319.318L320.388 315.33C322.46 314.128 325.822 314.125 327.897 315.323L330.292 316.706L339.239 311.54C340.047 311.073 341.358 311.073 342.166 311.54L342.226 311.575C343.034 312.042 343.034 312.798 342.226 313.265L333.278 318.431L333.775 318.718C335.849 319.916 335.851 321.861 333.777 323.061L326.897 327.046L316.858 332.848L303.467 325.116L313.512 319.318Z" fill="#E0E0E0"/>
<path d="M412.367 340.179C437.729 340.179 458.289 328.308 458.289 313.666C458.289 299.023 437.729 287.153 412.367 287.153C387.005 287.153 366.445 299.023 366.445 313.666C366.445 328.308 387.005 340.179 412.367 340.179Z" fill="#E0E0E0"/>
<path d="M57.047 400.182C82.409 400.182 102.969 388.311 102.969 373.669C102.969 359.026 82.409 347.156 57.047 347.156C31.685 347.156 11.125 359.026 11.125 373.669C11.125 388.311 31.685 400.182 57.047 400.182Z" fill="#E0E0E0"/>
<path d="M129.9 316.887L99.431 316.473L99.166 341.355H99.169C99.144 343.607 100.606 345.875 103.563 347.626C109.474 351.125 119.121 351.23 125.11 347.859C128.131 346.158 129.639 343.898 129.636 341.626L129.9 316.887Z" fill="#37474F"/>
<path d="M103.966 310.306C97.9812 313.678 97.9202 319.248 103.832 322.747C109.743 326.246 119.39 326.35 125.379 322.98C131.367 319.609 131.427 314.039 125.513 310.539C119.598 307.039 109.952 306.935 103.966 310.306Z" fill="#455A64"/>
<path d="M128.59 316.788C128.59 317.186 128.507 317.584 128.375 317.982C127.911 319.408 126.667 320.734 124.728 321.828C122.026 323.336 118.429 324.149 114.583 324.116C110.754 324.066 107.173 323.188 104.504 321.613C102.631 320.502 101.404 319.16 100.973 317.767C100.824 317.353 100.758 316.921 100.758 316.491C100.791 314.634 102.15 312.844 104.62 311.468C107.305 309.943 110.919 309.131 114.749 309.18C118.595 309.213 122.175 310.108 124.844 311.683C127.28 313.124 128.606 314.931 128.59 316.788Z" fill="#263238"/>
<path d="M128.375 317.981C127.911 319.407 126.667 320.733 124.728 321.827C122.026 323.335 118.429 324.148 114.583 324.115C110.754 324.065 107.173 323.187 104.504 321.612C102.631 320.501 101.404 319.159 100.973 317.766C101.437 316.34 102.681 315.014 104.62 313.937C107.305 312.412 110.919 311.6 114.749 311.633C118.595 311.683 122.175 312.578 124.844 314.153C126.718 315.263 127.928 316.589 128.375 317.981Z" fill="#F5F5F5"/>
<path opacity="0.15" d="M124.728 321.827C125.24 321.538 125.701 321.232 126.114 320.913C120.552 323.896 110.987 322.645 108.004 320.297C105.025 317.953 104.623 313.949 109.469 312.158C107.67 312.547 106.017 313.142 104.62 313.936C102.681 315.013 101.437 316.34 100.973 317.765C101.404 319.157 102.631 320.5 104.504 321.611C107.173 323.186 110.754 324.064 114.583 324.114C118.429 324.148 122.026 323.336 124.728 321.827Z" fill="black"/>
<path d="M121.161 326.21C121.829 325.834 122.363 326.15 122.355 326.917C122.347 327.684 121.798 328.61 121.13 328.987C120.462 329.364 119.927 329.047 119.936 328.28C119.945 327.513 120.493 326.586 121.161 326.21Z" fill="#263238"/>
<path d="M99.3813 320.849C97.7073 324.148 94.3753 332.005 98.7013 335.205C98.8843 335.338 99.0493 335.454 99.2323 335.57L99.2153 337.161C98.7843 336.896 98.3363 336.597 97.9063 336.282C91.4413 331.491 98.7353 319.191 99.0503 318.677C99.1333 318.528 99.2653 318.445 99.4153 318.395L99.3813 320.849Z" fill="#E0E0E0"/>
<path d="M121.727 327.91C121.545 328.291 116.837 337.293 109.095 339.1C108.2 339.316 107.321 339.415 106.426 339.415C104.022 339.415 101.619 338.669 99.2148 337.161L99.2318 335.57C102.431 337.791 105.647 338.554 108.797 337.824C115.942 336.15 120.517 327.38 120.55 327.298C120.716 326.966 121.13 326.85 121.445 327.016C121.777 327.18 121.909 327.578 121.727 327.91Z" fill="#E0E0E0"/>
<path d="M158.935 328.482L128.466 328.068L128.201 352.95H128.204C128.179 355.202 129.641 357.471 132.598 359.221C138.509 362.72 148.156 362.824 154.145 359.454C157.166 357.753 158.673 355.493 158.671 353.221L158.935 328.482Z" fill="#37474F"/>
<path d="M133 321.901C127.014 325.273 126.954 330.843 132.866 334.342C138.777 337.841 148.424 337.946 154.412 334.575C160.4 331.204 160.46 325.634 154.546 322.134C148.632 318.633 138.986 318.529 133 321.901Z" fill="#455A64"/>
<path d="M157.625 328.382C157.625 328.78 157.542 329.178 157.41 329.576C156.946 331.002 155.702 332.328 153.763 333.422C151.061 334.93 147.464 335.743 143.618 335.71C139.789 335.66 136.208 334.782 133.539 333.207C131.666 332.096 130.439 330.754 130.008 329.361C129.859 328.946 129.793 328.515 129.793 328.084C129.826 326.227 131.186 324.437 133.656 323.061C136.341 321.536 139.955 320.724 143.784 320.773C147.63 320.806 151.21 321.701 153.879 323.276C156.315 324.719 157.641 326.526 157.625 328.382Z" fill="#263238"/>
<path d="M157.41 329.576C156.946 331.002 155.702 332.328 153.763 333.422C151.061 334.93 147.464 335.743 143.618 335.71C139.789 335.66 136.208 334.782 133.539 333.207C131.666 332.096 130.439 330.754 130.008 329.361C130.472 327.935 131.716 326.609 133.655 325.532C136.34 324.007 139.954 323.195 143.783 323.228C147.629 323.278 151.209 324.173 153.878 325.748C155.753 326.857 156.963 328.183 157.41 329.576Z" fill="#D3B89B"/>
<path opacity="0.15" d="M153.763 333.422C154.275 333.133 154.735 332.827 155.149 332.508C149.587 335.491 140.022 334.24 137.039 331.892C134.06 329.548 133.658 325.544 138.504 323.753C136.705 324.142 135.052 324.737 133.655 325.531C131.716 326.608 130.472 327.935 130.008 329.36C130.439 330.752 131.666 332.095 133.539 333.206C136.208 334.781 139.789 335.659 143.618 335.709C147.464 335.742 151.061 334.93 153.763 333.422Z" fill="black"/>
<path d="M150.196 337.804C150.864 337.428 151.398 337.744 151.39 338.511C151.382 339.278 150.833 340.204 150.165 340.581C149.497 340.958 148.962 340.641 148.971 339.874C148.98 339.107 149.528 338.181 150.196 337.804Z" fill="#263238"/>
<path d="M128.416 332.444C126.742 335.743 123.41 343.6 127.736 346.8C127.918 346.933 128.084 347.049 128.267 347.165L128.25 348.756C127.819 348.491 127.372 348.192 126.941 347.878C120.476 343.087 127.77 330.787 128.085 330.273C128.168 330.124 128.3 330.041 128.45 329.991L128.416 332.444Z" fill="#E0E0E0"/>
<path d="M150.762 339.505C150.58 339.886 145.872 348.888 138.13 350.695C137.235 350.91 136.356 351.01 135.461 351.01C133.057 351.01 130.654 350.264 128.25 348.755L128.267 347.164C131.466 349.385 134.682 350.148 137.832 349.419C144.977 347.745 149.552 338.975 149.585 338.893C149.751 338.561 150.165 338.445 150.48 338.611C150.812 338.776 150.944 339.174 150.762 339.505Z" fill="#E0E0E0"/>
<path d="M325.457 283.989C325.306 283.989 325.159 283.91 325.076 283.77C324.955 283.56 325.027 283.291 325.237 283.17L330.85 279.931C331.063 279.813 331.328 279.883 331.45 280.092C331.571 280.302 331.499 280.571 331.289 280.692L325.676 283.931C325.606 283.969 325.531 283.989 325.457 283.989Z" fill="#37474F"/>
<path d="M326.271 281.301C327.178 281.83 327.91 283.11 327.904 284.159C327.902 284.69 327.712 285.058 327.407 285.226L197.617 360.153L195.312 356.114L325.094 281.191C325.395 281.011 325.811 281.032 326.271 281.301Z" fill="#455A64"/>
<path d="M198.105 359.093C198.1 360.143 197.361 360.565 196.455 360.036C195.548 359.507 194.817 358.227 194.822 357.178C194.827 356.128 195.566 355.706 196.472 356.235C197.378 356.763 198.109 358.043 198.105 359.093Z" fill="#37474F"/>
<path d="M319.014 271.738C318.863 271.738 318.716 271.659 318.633 271.519C318.512 271.309 318.584 271.041 318.794 270.919L326.524 266.455C326.729 266.337 326.999 266.405 327.124 266.616C327.245 266.826 327.173 267.094 326.963 267.216L319.233 271.68C319.165 271.719 319.09 271.738 319.014 271.738Z" fill="#37474F"/>
<path d="M324.202 259.354C321.299 261.029 318.946 265.103 318.945 268.455C318.945 270.161 319.556 271.347 320.538 271.883L351.609 289.787L359.095 276.945L328.021 259.045L328.015 259.055C327.058 258.438 325.706 258.486 324.202 259.354Z" fill="#D3B89B"/>
<path d="M350.02 286.354C350.021 283.003 352.374 278.928 355.277 277.253C358.18 275.578 360.532 276.937 360.531 280.288C360.53 283.639 358.177 287.714 355.274 289.389C352.371 291.064 350.019 289.705 350.02 286.354Z" fill="#D3B89B"/>
<path opacity="0.25" d="M350.02 286.354C350.021 283.003 352.374 278.928 355.277 277.253C358.18 275.578 360.532 276.937 360.531 280.288C360.53 283.639 358.177 287.714 355.274 289.389C352.371 291.064 350.019 289.705 350.02 286.354Z" fill="black"/>
<path d="M353.908 284.11C353.908 283.238 354.521 282.178 355.276 281.742C356.031 281.306 356.643 281.66 356.643 282.532C356.643 283.404 356.03 284.464 355.275 284.9C354.52 285.335 353.908 284.982 353.908 284.11Z" fill="black"/>
<path d="M345.758 288.805C345.208 288.805 344.657 288.664 344.166 288.381L318.793 273.732C318.284 273.438 317.982 272.913 317.982 272.326C317.982 271.739 318.285 271.213 318.793 270.919C318.998 270.801 319.268 270.869 319.393 271.08C319.514 271.29 319.442 271.558 319.232 271.68C318.999 271.815 318.859 272.056 318.859 272.326C318.859 272.595 318.998 272.836 319.232 272.971L344.604 287.62C345.315 288.031 346.199 288.031 346.91 287.62L355.053 282.919C355.262 282.802 355.531 282.87 355.653 283.08C355.774 283.29 355.702 283.559 355.492 283.68L347.349 288.381C346.86 288.663 346.309 288.805 345.758 288.805Z" fill="#37474F"/>
<path d="M327.337 319.003L340.32 311.528C340.572 311.383 340.729 311.071 340.729 310.627C340.73 309.739 340.108 308.658 339.339 308.213C338.955 307.99 338.606 307.969 338.354 308.114L325.371 315.589L327.337 319.003Z" fill="#455A64"/>
<path d="M328.714 313.666L332.651 315.945L327.338 319.004L325.373 315.59L328.714 313.666Z" fill="#37474F"/>
<path d="M313.973 319.87L316.612 318.344L313.976 316.818L319.403 313.679C321.039 312.733 323.69 312.734 325.325 313.681L329.958 316.364C330.724 316.808 331.137 317.393 331.18 317.972C331.185 318.035 331.2 320.652 331.168 321.224C331.135 321.812 330.731 322.393 329.953 322.842L324.523 325.978L313.973 319.87Z" fill="#37474F"/>
<path d="M329.959 316.364L325.326 313.681C323.691 312.734 321.04 312.733 319.404 313.679L313.977 316.818L324.527 322.926L329.957 319.79C331.593 318.845 331.594 317.311 329.959 316.364Z" fill="#455A64"/>
<path d="M324.526 322.926L313.976 316.818L306.049 321.382L316.603 327.492L324.526 322.926Z" fill="#F0F0F0"/>
<path d="M324.527 322.926L316.604 327.492L316.6 330.54L324.523 325.978L324.527 322.926Z" fill="#EBEBEB"/>
<path d="M326.882 321.565L316.33 315.457L317.409 314.832L328.017 320.91L326.882 321.565Z" fill="#D3B89B"/>
<path d="M326.881 321.565L326.877 324.616L328.013 323.96L328.016 320.91L326.881 321.565Z" fill="#D3B89B"/>
<path opacity="0.1" d="M326.881 321.565L326.877 324.616L328.013 323.96L328.016 320.91L326.881 321.565Z" fill="black"/>
<path d="M319.02 329.147C319.02 329.147 320.467 327.287 319.692 325.713L316.604 327.493L316.6 330.541L319.02 329.147Z" fill="#D3B89B"/>
<path opacity="0.1" d="M319.02 329.147C319.02 329.147 320.467 327.287 319.692 325.713L316.604 327.493L316.6 330.541L319.02 329.147Z" fill="black"/>
<path d="M319.691 325.713C319.691 325.713 319.484 323.657 317.529 322.811C316.09 322.187 313.033 323.455 311.769 321.39C310.879 319.936 311.856 318.04 311.856 318.04L306.049 321.384L316.603 327.494L319.691 325.713Z" fill="#D3B89B"/>
<path d="M306.049 321.382L306.045 324.432L316.599 330.54L316.603 327.492L306.049 321.382Z" fill="#D3B89B"/>
<path opacity="0.15" d="M306.049 321.382L306.045 324.432L316.599 330.54L316.603 327.492L306.049 321.382Z" fill="black"/>
<path d="M336.34 131.419L318.961 141.449V186.867L333.216 195.106V149.687L350.606 139.646L336.34 131.419Z" fill="#D3B89B"/>
<path d="M318.962 186.867C318.962 198.687 315.861 207.031 309.682 211.923C310.291 222.737 314.211 226.048 321.443 221.87C329.296 217.341 333.216 208.412 333.216 195.106L318.962 186.867Z" fill="#D3B89B"/>
<path opacity="0.1" d="M318.962 186.867C318.962 198.687 315.861 207.031 309.682 211.923C310.291 222.737 314.211 226.048 321.443 221.87C329.296 217.341 333.216 208.412 333.216 195.106L318.962 186.867Z" fill="black"/>
<path d="M295.333 155.094L277.674 165.287V211.42L291.94 219.647V173.526L309.588 163.333L295.333 155.094Z" fill="#D3B89B"/>
<path d="M299.652 243.849C294.503 240.081 291.94 232.017 291.94 219.647L277.674 211.42C277.674 223.778 280.249 231.853 285.386 235.61C285.784 235.903 286.194 236.172 286.615 236.406C288.78 237.611 298.33 243.17 300.401 244.364C300.143 244.199 299.898 244.024 299.652 243.849Z" fill="#D3B89B"/>
<path opacity="0.1" d="M299.652 243.849C294.503 240.081 291.94 232.017 291.94 219.647L277.674 211.42C277.674 223.778 280.249 231.853 285.386 235.61C285.784 235.903 286.194 236.172 286.615 236.406C288.78 237.611 298.33 243.17 300.401 244.364C300.143 244.199 299.898 244.024 299.652 243.849Z" fill="black"/>
<path opacity="0.5" d="M333.216 149.689L318.955 141.454L336.342 131.417L350.603 139.652L333.216 149.689Z" fill="white"/>
<path opacity="0.5" d="M291.935 173.523L277.674 165.288L295.328 155.096L309.589 163.331L291.935 173.523Z" fill="white"/>
<path d="M299.648 243.85C294.506 240.083 291.936 232.015 291.936 219.652V173.524L309.59 163.331V208.745C309.59 222.06 313.542 226.436 321.449 221.871C329.295 217.341 333.218 208.418 333.218 195.103V149.689L350.605 139.651V185.779C350.605 198.143 348.034 209.179 342.893 218.883C337.75 228.589 330.544 236.117 321.271 241.471C311.997 246.825 304.789 247.619 299.648 243.85Z" fill="#D3B89B"/>
<path opacity="0.3" d="M299.648 243.85C294.506 240.083 291.936 232.015 291.936 219.652V173.524L309.59 163.331V208.745C309.59 222.06 313.542 226.436 321.449 221.871C329.295 217.341 333.218 208.418 333.218 195.103V149.689L350.605 139.651V185.779C350.605 198.143 348.034 209.179 342.893 218.883C337.75 228.589 330.544 236.117 321.271 241.471C311.997 246.825 304.789 247.619 299.648 243.85Z" fill="white"/>
<path d="M258.119 186.013C256.293 184.971 254.269 184.304 252.045 184.012C246.779 183.321 240.857 184.878 234.257 188.693C227.657 192.508 221.723 197.786 216.469 204.55L230.723 212.789C235.989 206.025 241.911 200.735 248.511 196.932C255.112 193.117 261.045 191.56 266.299 192.251C268.569 192.544 270.629 193.222 272.466 194.299C270.595 193.199 260.53 187.382 258.119 186.013Z" fill="#D3B89B"/>
<path opacity="0.5" d="M258.119 186.013C256.293 184.971 254.269 184.304 252.045 184.012C246.779 183.321 240.857 184.878 234.257 188.693C227.657 192.508 221.723 197.786 216.469 204.55L230.723 212.789C235.989 206.025 241.911 200.735 248.511 196.932C255.112 193.117 261.045 191.56 266.299 192.251C268.569 192.544 270.629 193.222 272.466 194.299C270.595 193.199 260.53 187.382 258.119 186.013Z" fill="white"/>
<path d="M216.469 204.55C211.203 211.314 207.072 218.851 204.076 227.16L218.33 235.399C221.337 227.09 225.469 219.553 230.723 212.789L216.469 204.55Z" fill="#D3B89B"/>
<path opacity="0.15" d="M216.469 204.55C211.203 211.314 207.072 218.851 204.076 227.16L218.33 235.399C221.337 227.09 225.469 219.553 230.723 212.789L216.469 204.55Z" fill="white"/>
<path d="M218.329 235.4L204.075 227.161C201.067 235.47 199.57 243.756 199.57 251.994C199.57 260.233 201.068 266.775 204.075 271.631L218.329 279.858C215.333 275.013 213.823 268.471 213.823 260.232C213.823 251.983 215.333 243.709 218.329 235.4Z" fill="#D3B89B"/>
<path d="M218.33 279.858L204.076 271.631C205.796 274.404 207.879 276.499 210.349 277.904C212.128 278.922 221.595 284.399 224.357 285.991C222.005 284.586 219.992 282.538 218.33 279.858Z" fill="#D3B89B"/>
<path opacity="0.1" d="M218.33 279.858L204.076 271.631C205.796 274.404 207.879 276.499 210.349 277.904C212.128 278.922 221.595 284.399 224.357 285.991C222.005 284.586 219.992 282.538 218.33 279.858Z" fill="black"/>
<path d="M249.963 215.669C250.121 215.593 250.275 215.531 250.432 215.461V215.458C250.278 215.529 250.115 215.599 249.963 215.669Z" fill="#37474F"/>
<path d="M257.078 214.452C255.045 214.056 252.834 214.393 250.431 215.461C250.875 217.438 251.109 219.684 251.109 222.234C251.109 226.915 250.36 231.491 248.874 235.95C247.388 240.42 245.363 244.376 242.812 247.828C240.261 251.292 237.405 253.925 234.257 255.751C233.602 256.126 232.958 256.442 232.338 256.711C232.689 258.361 233.216 259.812 233.894 261.064C235.38 263.814 237.393 265.441 239.956 265.956C242.507 266.459 245.363 265.804 248.511 263.978C251.659 262.164 254.515 259.519 257.077 256.067C259.628 252.615 261.653 248.647 263.139 244.189C264.625 239.718 265.363 235.154 265.363 230.473C265.363 225.804 264.626 222.082 263.139 219.332C261.654 216.594 259.629 214.967 257.078 214.452Z" fill="#D3B89B"/>
<path opacity="0.1" d="M257.078 214.452C255.045 214.056 252.834 214.393 250.431 215.461C250.875 217.438 251.109 219.684 251.109 222.234C251.109 226.915 250.36 231.491 248.874 235.95C247.388 240.42 245.363 244.376 242.812 247.828C240.261 251.292 237.405 253.925 234.257 255.751C233.602 256.126 232.958 256.442 232.338 256.711C232.689 258.361 233.216 259.812 233.894 261.064C235.38 263.814 237.393 265.441 239.956 265.956C242.507 266.459 245.363 265.804 248.511 263.978C251.659 262.164 254.515 259.519 257.077 256.067C259.628 252.615 261.653 248.647 263.139 244.189C264.625 239.718 265.363 235.154 265.363 230.473C265.363 225.804 264.626 222.082 263.139 219.332C261.654 216.594 259.629 214.967 257.078 214.452Z" fill="black"/>
<path d="M230.725 288.16C225.464 287.474 221.331 284.707 218.33 279.862C215.328 275.017 213.828 268.473 213.828 260.229C213.828 251.987 215.328 243.711 218.33 235.399C221.331 227.089 225.463 219.552 230.725 212.788C235.985 206.026 241.915 200.739 248.513 196.93C255.112 193.12 261.041 191.56 266.302 192.248C268.568 192.545 270.625 193.227 272.472 194.295C274.912 195.706 276.987 197.79 278.696 200.548C281.697 205.395 283.198 211.937 283.198 220.179C283.198 228.423 281.697 236.7 278.696 245.011C275.693 253.323 271.563 260.86 266.303 267.621C261.043 274.385 255.113 279.669 248.514 283.479C241.915 287.286 235.986 288.849 230.725 288.16ZM257.073 256.067C259.628 252.611 261.65 248.65 263.136 244.184C264.621 239.722 265.365 235.152 265.365 230.474C265.365 225.799 264.621 222.088 263.136 219.338C261.649 216.591 259.627 214.965 257.073 214.457C254.516 213.953 251.663 214.608 248.513 216.427C245.362 218.246 242.508 220.886 239.954 224.341C237.397 227.799 235.375 231.76 233.891 236.223C232.404 240.689 231.662 245.258 231.662 249.933C231.662 254.611 232.404 258.322 233.891 261.069C235.376 263.82 237.398 265.446 239.954 265.951C242.509 266.458 245.362 265.801 248.513 263.981C251.663 262.162 254.516 259.525 257.073 256.067Z" fill="#D3B89B"/>
<path opacity="0.3" d="M230.725 288.16C225.464 287.474 221.331 284.707 218.33 279.862C215.328 275.017 213.828 268.473 213.828 260.229C213.828 251.987 215.328 243.711 218.33 235.399C221.331 227.089 225.463 219.552 230.725 212.788C235.985 206.026 241.915 200.739 248.513 196.93C255.112 193.12 261.041 191.56 266.302 192.248C268.568 192.545 270.625 193.227 272.472 194.295C274.912 195.706 276.987 197.79 278.696 200.548C281.697 205.395 283.198 211.937 283.198 220.179C283.198 228.423 281.697 236.7 278.696 245.011C275.693 253.323 271.563 260.86 266.303 267.621C261.043 274.385 255.113 279.669 248.514 283.479C241.915 287.286 235.986 288.849 230.725 288.16ZM257.073 256.067C259.628 252.611 261.65 248.65 263.136 244.184C264.621 239.722 265.365 235.152 265.365 230.474C265.365 225.799 264.621 222.088 263.136 219.338C261.649 216.591 259.627 214.965 257.073 214.457C254.516 213.953 251.663 214.608 248.513 216.427C245.362 218.246 242.508 220.886 239.954 224.341C237.397 227.799 235.375 231.76 233.891 236.223C232.404 240.689 231.662 245.258 231.662 249.933C231.662 254.611 232.404 258.322 233.891 261.069C235.376 263.82 237.398 265.446 239.954 265.951C242.509 266.458 245.362 265.801 248.513 263.981C251.663 262.162 254.516 259.525 257.073 256.067Z" fill="white"/>
<path d="M200.996 209.56L183.877 219.444L172.518 251.364L168.535 244.77L154.274 236.535L135.639 247.294L159.446 286.572V316.769L173.706 325.003L191.36 314.811V284.971L215.257 217.795L200.996 209.56Z" fill="#D3B89B"/>
<path opacity="0.5" d="M200.996 209.56L183.877 219.444L172.518 251.364L168.535 244.77L154.274 236.535L135.639 247.294L159.446 286.572V316.769L173.706 325.003L191.36 314.811V284.971L215.257 217.795L200.996 209.56Z" fill="white"/>
<path d="M183.877 219.443L198.137 227.678L183.335 269.274L172.518 251.363L183.877 219.443Z" fill="#D3B89B"/>
<path d="M135.639 247.294L149.899 255.529L173.706 294.807L159.446 286.572L135.639 247.294Z" fill="#D3B89B"/>
<path d="M159.445 316.769L173.705 325.003V294.807L159.445 286.572V316.769Z" fill="#D3B89B"/>
<path opacity="0.1" d="M159.445 316.769L173.705 325.003V294.807L159.445 286.572V316.769Z" fill="black"/>
<path d="M191.359 284.971V314.811L173.705 325.004V294.808L149.898 255.53L168.534 244.771L183.335 269.276L198.137 227.68L215.257 217.796L191.359 284.971Z" fill="#D3B89B"/>
<path opacity="0.3" d="M191.359 284.971V314.811L173.705 325.004V294.808L149.898 255.53L168.534 244.771L183.335 269.276L198.137 227.68L215.257 217.796L191.359 284.971Z" fill="white"/>
<path d="M326.112 23.8885L308.814 33.8755V71.7355L295.522 58.0175L281.262 49.7825L266.729 58.1735V141.394L280.989 149.628L298.287 139.642V101.781L311.578 115.5L325.838 123.735L340.372 115.343V32.1236L326.112 23.8885Z" fill="#37474F"/>
<path d="M340.371 32.1235V115.343L325.837 123.734L298.286 95.2955V139.64L280.988 149.627V66.4065L295.521 58.0155L323.073 86.4515V42.1105L340.371 32.1235Z" fill="#455A64"/>
<path d="M266.729 58.1736L280.989 66.4086L295.522 58.0176L281.262 49.7826L266.729 58.1736Z" fill="#455A64"/>
<path opacity="0.2" d="M266.729 58.1736L280.989 66.4086L295.522 58.0176L281.262 49.7826L266.729 58.1736Z" fill="white"/>
<path d="M308.814 33.8755L323.075 42.1105L340.372 32.1236L326.112 23.8885L308.814 33.8755Z" fill="#455A64"/>
<path opacity="0.2" d="M308.814 33.8755L323.075 42.1105L340.372 32.1236L326.112 23.8885L308.814 33.8755Z" fill="white"/>
<path d="M298.287 95.2965L325.838 123.734L311.578 115.499L298.287 101.781V95.2965Z" fill="#263238"/>
<path d="M248.354 85.2495L234.094 77.0145L216.707 87.0525L189.156 186.179L203.416 194.414L221.427 184.015L226.33 165.016L252.722 149.778L257.626 163.115L275.994 152.51L248.354 85.2495Z" fill="#37474F"/>
<path d="M252.724 149.778L226.332 165.016L221.429 184.015L203.418 194.414L230.969 95.2885L248.356 85.2505L275.997 152.511L257.629 163.116L252.724 149.778ZM247.552 135.406L239.527 113.409L231.502 144.672L247.552 135.406Z" fill="#455A64"/>
<path d="M216.707 87.0525L230.967 95.2875L248.354 85.2495L234.094 77.0145L216.707 87.0525Z" fill="#455A64"/>
<path opacity="0.2" d="M216.707 87.0525L230.967 95.2875L248.354 85.2495L234.094 77.0145L216.707 87.0525Z" fill="white"/>
<path d="M247.547 135.398L235.645 128.529L239.53 113.409L247.547 135.398Z" fill="#263238"/>
<path d="M184.162 105.843L166.507 116.036V147.303L156.694 152.969V138.17L142.434 129.935L124.779 140.128V223.348L139.039 231.582L156.694 221.389V188.934L166.507 183.268V199.256L180.768 207.491L198.423 197.297V114.078L184.162 105.843Z" fill="#37474F"/>
<path d="M198.424 114.078V197.297L180.769 207.49V175.035L156.696 188.934V221.39L139.041 231.583V148.364L156.696 138.171V169.437L180.769 155.538V124.271L198.424 114.078Z" fill="#455A64"/>
<path d="M124.779 140.128L139.039 148.363L156.694 138.17L142.434 129.935L124.779 140.128Z" fill="#455A64"/>
<path opacity="0.2" d="M124.779 140.128L139.039 148.363L156.694 138.17L142.434 129.935L124.779 140.128Z" fill="white"/>
<path d="M166.508 116.036L180.769 124.271L198.424 114.078L184.163 105.843L166.508 116.036Z" fill="#455A64"/>
<path opacity="0.2" d="M166.508 116.036L180.769 124.271L198.424 114.078L184.163 105.843L166.508 116.036Z" fill="white"/>
<path d="M166.506 147.302L180.767 155.537L156.693 169.435V152.968L166.506 147.302Z" fill="#455A64"/>
<path opacity="0.2" d="M166.506 147.302L180.767 155.537L156.693 169.435V152.968L166.506 147.302Z" fill="white"/>
<path d="M180.769 175.035V207.491L166.508 199.256V183.268L180.769 175.035Z" fill="#263238"/>
<path d="M404.868 298.511L405.383 288.703L394.261 290.046C394.261 290.046 394.719 295.33 395.039 298.317C395.228 300.083 393.02 303.501 393.02 303.501C393.02 303.501 398.417 306.026 401.172 304.889C403.927 303.752 405.223 300.176 405.143 299.416C405.063 298.656 404.868 298.511 404.868 298.511Z" fill="#FFA8A7"/>
<path d="M378.814 315.208C378.638 315.215 378.441 317.042 379.428 317.779C380.567 318.629 383.868 319.973 388.134 319.293C392.401 318.614 394.675 317.286 396.339 315.879C398.003 314.472 400.335 312.487 402.258 312.015C404.045 311.576 405.972 310.739 406.528 310.197C407.085 309.654 406.916 307.341 406.916 307.341L378.814 315.208Z" fill="#263238"/>
<path d="M404.868 298.494C404.868 298.494 405.406 298.479 405.537 299.011C405.693 299.644 405.907 301.496 406.231 302.533C406.68 303.974 407.058 306.947 406.868 308.143C406.677 309.338 403.772 310.273 401.922 311.012C400.031 311.767 397.869 313.257 395.98 314.831C394.025 316.46 389.85 318.235 387.055 318.321C383.748 318.422 379.988 317.56 379.08 316.158C377.957 314.423 377.109 312.39 381.929 310.082C382.842 309.645 386.031 307.719 387.117 307.024C390.055 305.142 392.107 303.438 393.37 300.254C393.518 299.882 393.672 299.47 394.038 299.27C394.319 299.117 394.665 299.124 394.988 299.154C395.809 299.231 399.082 299.53 399.839 299.834C400.508 300.103 401.454 300.408 401.47 301.197C401.475 301.471 401.401 301.742 401.316 302.005C401.263 302.168 401.225 302.384 401.38 302.473C401.526 302.558 401.71 302.448 401.834 302.336C402.331 301.887 402.686 301.322 403.098 300.804C403.319 300.526 403.562 300.258 403.845 300.035C404.103 299.832 404.438 299.723 404.665 299.495C404.953 299.205 404.868 298.864 404.868 298.494Z" fill="#455A64"/>
<path d="M395.98 314.83C396.81 314.138 397.693 313.467 398.582 312.863V312.859C398.582 312.859 392.943 316.353 390.557 314.952C389.02 314.049 389.689 312.858 389.711 312.484C389.733 312.11 384.335 309.681 382.871 309.573C382.473 309.798 382.139 309.98 381.929 310.081C377.109 312.389 377.957 314.423 379.08 316.158C379.988 317.56 382.727 318.577 386.999 318.417C389.794 318.312 394.025 316.459 395.98 314.83Z" fill="#37474F"/>
<path d="M390.072 311.383C387.068 312.637 388.388 313.121 389.246 313.203C390.104 313.285 395.127 310.29 398.167 307.857C401.338 305.319 403.295 302.602 404.473 301.669C404.912 301.321 405.383 300.897 405.801 300.501C405.697 299.876 405.61 299.307 405.536 299.009C405.405 298.477 404.867 298.492 404.867 298.492C404.867 298.862 404.952 299.204 404.664 299.492C404.437 299.72 404.102 299.829 403.844 300.032C403.56 300.256 403.318 300.523 403.097 300.8C402.684 301.319 402.329 301.884 401.833 302.333C399.292 305.595 393.076 310.129 390.072 311.383Z" fill="#37474F"/>
<path d="M389.447 312.777C389.515 312.774 389.581 312.751 389.636 312.706C389.761 312.603 389.774 312.424 389.663 312.307C388.765 311.354 384.599 309.168 382.365 309.482C382.199 309.505 382.085 309.649 382.109 309.803C382.132 309.957 382.268 310.06 382.45 310.041C384.536 309.752 388.497 311.927 389.209 312.683C389.271 312.748 389.359 312.781 389.447 312.777Z" fill="#263238"/>
<path d="M392.046 311.146C392.113 311.143 392.18 311.12 392.235 311.075C392.36 310.972 392.372 310.793 392.262 310.677C391.365 309.724 387.2 307.54 384.964 307.853C384.799 307.876 384.684 308.02 384.708 308.173C384.731 308.327 384.88 308.434 385.049 308.411C387.136 308.125 391.096 310.296 391.808 311.052C391.87 311.117 391.958 311.149 392.046 311.146Z" fill="#263238"/>
<path d="M394.65 309.597C394.717 309.595 394.784 309.572 394.838 309.527C394.964 309.424 394.975 309.244 394.865 309.127C393.967 308.174 389.801 305.987 387.567 306.304C387.402 306.327 387.287 306.47 387.312 306.624C387.335 306.778 387.482 306.885 387.653 306.862C389.74 306.573 393.7 308.747 394.412 309.503C394.474 309.568 394.562 309.6 394.65 309.597Z" fill="#263238"/>
<path d="M397.052 307.849C397.119 307.846 397.186 307.823 397.241 307.778C397.366 307.675 397.378 307.496 397.268 307.38C396.371 306.427 392.195 304.242 389.97 304.556C389.805 304.579 389.69 304.723 389.714 304.876C389.737 305.03 389.885 305.136 390.056 305.114C392.14 304.827 396.103 306.999 396.815 307.755C396.876 307.82 396.964 307.852 397.052 307.849Z" fill="#263238"/>
<path d="M399.402 306.103C399.468 306.101 399.533 306.079 399.587 306.036C399.714 305.934 399.729 305.755 399.621 305.637C398.385 304.284 394.041 302.491 391.808 302.804C391.643 302.827 391.528 302.97 391.552 303.124C391.576 303.278 391.724 303.381 391.894 303.363C393.904 303.082 398.065 304.807 399.162 306.006C399.224 306.074 399.314 306.106 399.402 306.103Z" fill="#263238"/>
<path d="M427.711 302.593L424.943 293.404L436.278 291.377L436.997 300.317C436.997 300.317 438.282 303.483 437.615 304.678C436.948 305.872 429.418 307.382 428.695 306.63C427.971 305.877 427.711 302.593 427.711 302.593Z" fill="#FFA8A7"/>
<path d="M429.35 322.736C429.788 325.593 430.458 327.426 431.756 328.935C433.055 330.443 435.274 330.626 437.434 329.777C439.593 328.928 442.299 327.15 442.714 324.559C443.13 321.967 442.855 320.28 442.124 317.683L429.35 322.736Z" fill="#263238"/>
<path d="M436.995 300.317C437.908 300.235 437.82 304.175 438.678 307.973C439.598 312.044 441.144 313.54 441.939 316.871C442.848 320.677 442.768 322.455 441.435 325.058C440.103 327.661 434.864 330.845 431.892 327.9C429.47 325.499 429.116 322.462 428.979 318.539C428.838 314.483 428.774 311.624 428.326 308.601C427.897 305.711 426.956 303.161 427.717 302.71C427.815 303.129 427.92 303.663 428.021 304.073C428.098 304.388 428.325 305.953 428.835 305.887C428.85 305.507 428.811 305.161 428.75 304.786C428.697 304.46 428.697 304.095 428.917 303.805C429.139 303.512 429.997 303.126 430.359 303.003C431.238 302.703 432.815 302.311 433.715 302.093C434.164 301.984 434.615 301.892 435.069 301.824C435.437 301.769 435.873 301.727 436.231 301.785C436.451 301.821 436.661 301.925 436.756 302.102C436.827 302.233 436.829 302.39 436.842 302.539C436.865 302.809 436.927 303.072 437.025 303.321C437.068 303.431 437.17 303.557 437.297 303.508C437.401 303.468 437.432 303.345 437.424 303.249C437.387 302.778 437.29 302.447 437.218 301.904C437.185 301.653 437.109 301.316 437.083 301.062C437.06 300.813 437.036 300.563 436.995 300.317Z" fill="#455A64"/>
<path d="M441.64 315.795C441.777 316.343 442.634 319.979 441.551 320.833C440.38 321.757 439.45 318.939 439.45 318.939C439.45 318.939 436.487 318.615 432.415 320.93C432.683 321.499 432.205 323.595 431.013 323.36C429.829 323.127 429.007 318.93 428.996 318.875C429.143 322.634 429.544 325.567 431.895 327.898C434.866 330.843 440.105 327.66 441.438 325.056C442.771 322.453 442.851 320.675 441.942 316.869C441.85 316.49 441.748 316.135 441.64 315.795Z" fill="#37474F"/>
<path d="M439.139 319.243C439.279 320.649 440.803 319.922 440.699 317.922C440.595 315.922 438.962 311.398 438.679 307.973C438.239 303.275 437.909 300.235 436.996 300.317C437.004 300.364 437.006 300.412 437.013 300.459L437.303 302.412C437.354 302.695 437.403 302.944 437.427 303.248C437.698 306.118 437.943 311.705 438.448 314.287C438.953 316.87 439 317.837 439.139 319.243Z" fill="#37474F"/>
<path d="M432.899 320.814C432.482 319.478 432.15 318.583 431.608 316.01C431.07 313.455 429.341 308.366 428.477 305.626C428.214 305.181 428.079 304.3 428.023 304.072C427.929 303.689 427.831 303.201 427.739 302.797C427.73 302.769 427.722 302.741 427.715 302.712C427.168 303.047 427.443 305.268 427.782 306.411C428.121 307.554 428.529 308.777 428.96 310.419C430.027 313.646 430.299 318.541 430.979 320.396C431.658 322.253 433.316 322.15 432.899 320.814Z" fill="#37474F"/>
<path d="M432.335 321.06C432.377 321.05 432.417 321.032 432.455 321.008C432.486 320.987 435.65 318.962 439.388 319.243C439.572 319.256 439.747 319.131 439.781 318.965C439.815 318.798 439.694 318.652 439.511 318.638C435.512 318.338 432.236 320.438 432.098 320.529C431.941 320.632 431.892 320.822 431.991 320.955C432.065 321.055 432.204 321.093 432.335 321.06Z" fill="#263238"/>
<path d="M431.312 318.123C431.35 318.113 431.386 318.098 431.421 318.077C431.456 318.056 435.025 315.919 439.184 316.104C439.368 316.109 439.539 315.983 439.568 315.815C439.596 315.647 439.469 315.505 439.284 315.497C434.886 315.304 431.237 317.492 431.083 317.584C430.922 317.683 430.866 317.872 430.959 318.009C431.033 318.116 431.176 318.158 431.312 318.123Z" fill="#263238"/>
<path d="M438.714 313.235C438.84 313.203 438.948 313.11 438.982 312.988C439.027 312.822 438.919 312.667 438.739 312.642C434.566 312.07 430.706 314.552 430.543 314.659C430.385 314.762 430.337 314.952 430.436 315.085C430.535 315.217 430.745 315.237 430.901 315.138C430.938 315.115 434.688 312.707 438.571 313.244C438.619 313.251 438.667 313.247 438.714 313.235Z" fill="#263238"/>
<path d="M438.244 310.534C438.368 310.503 438.474 310.411 438.51 310.292C438.559 310.125 438.454 309.969 438.274 309.942C433.678 309.235 430.062 311.852 429.91 311.963C429.759 312.074 429.724 312.266 429.833 312.392C429.942 312.518 430.156 312.529 430.304 312.418C430.337 312.393 433.817 309.885 438.095 310.541C438.146 310.549 438.196 310.546 438.244 310.534Z" fill="#263238"/>
<path d="M437.704 307.501C437.826 307.47 437.932 307.381 437.969 307.264C438.021 307.098 437.918 306.94 437.739 306.91C433.427 306.187 429.488 308.907 429.323 309.024C429.168 309.131 429.13 309.323 429.235 309.452C429.339 309.581 429.549 309.599 429.704 309.488C429.743 309.461 433.548 306.836 437.552 307.508C437.602 307.516 437.654 307.514 437.704 307.501Z" fill="#263238"/>
<path d="M426.951 201.438C430.323 223.976 431.514 256.438 431.514 256.438C431.794 258.148 433.383 263.204 434.97 271.606C436.384 279.095 436.942 294.817 436.998 295.764C436.998 295.764 431.138 299.799 426.071 298.467C426.071 298.467 418.638 275.496 415.342 265.124C412.223 255.308 407.919 239.492 407.919 239.492L406.855 255.877C406.855 255.877 407.681 262.425 407.82 266.959C407.981 272.232 405.425 293.373 405.425 293.373C405.425 293.373 399.636 297.074 394.21 293.41C394.21 293.41 389.365 262.941 388.766 256.627C387.59 244.242 386.029 218.754 386.702 203.408L426.951 201.438Z" fill="#455A64"/>
<path d="M407.919 239.492L404.214 223.549C404.214 223.549 398.156 223.09 394.881 220.482C394.881 220.482 397.132 224.081 402.89 225.136L406.478 239.633L406.856 255.876L407.919 239.492Z" fill="#263238"/>
<path d="M368.855 139.94C370 145.221 369.35 144.627 372.377 148.781C378.747 157.52 386.383 167.805 386.383 167.805C393.201 170.455 393.716 161.613 397.835 157.144C394.096 153.23 392.558 153.222 388.043 147.971C385.195 144.66 380.461 139.196 380.461 139.196C380.461 139.196 378.317 133.594 376.546 128.487C374.312 122.046 373.586 121.129 374.563 118.028C375.035 116.529 375.214 114.55 375.33 113.621C375.6 111.456 375.548 109.277 375.726 107.109C375.739 106.955 375.75 106.794 375.688 106.653C375.447 106.108 374.72 106.484 374.392 106.728C373.947 107.06 373.731 107.63 373.574 108.153C373.367 108.846 373.192 109.541 372.991 110.239C372.938 110.424 372.815 111.075 372.552 111.072C372.272 111.069 372.305 110.376 372.293 110.201C372.245 109.487 372.271 108.771 372.297 108.057C372.361 106.271 372.425 104.484 372.489 102.698C372.498 102.452 372.506 102.201 372.442 101.964C372.185 101.016 371.092 101.142 370.659 102.167C370.544 102.44 370.454 102.723 370.393 103.013C370.206 103.911 370.071 104.82 369.988 105.734C369.954 106.113 369.933 106.48 369.847 106.851C369.83 106.924 369.718 107.441 369.575 107.23C369.54 107.179 369.537 107.113 369.536 107.051C369.51 105.837 369.601 104.624 369.661 103.412C369.691 102.798 369.714 102.183 369.709 101.568C369.705 101.157 369.818 100.397 369.495 100.078C369.388 99.9725 369.238 99.9175 369.089 99.8935C368.624 99.8175 368.119 100.034 367.852 100.421C367.702 100.638 367.579 100.906 367.487 101.154C367.422 101.326 367.35 101.658 367.3 101.965C367.013 101.272 366.086 101.456 365.736 102.015C365.202 102.869 365.185 103.826 365.129 105.014C365.065 106.359 365.038 107.015 365.026 109.031C365.024 109.424 364.841 109.669 364.768 109.227C364.706 108.852 364.672 108.502 364.652 108.12C364.627 107.651 364.628 107.501 364.597 107.003C364.556 106.346 364.624 105.102 364.397 104.832C364.182 104.577 363.732 104.706 363.497 104.902C363.318 105.051 363.211 105.269 363.125 105.485C362.572 106.877 362.663 108.431 362.779 109.924C362.872 111.119 362.975 112.313 363.078 113.507C363.268 115.702 363.484 117.982 364.612 119.875C364.999 120.524 365.379 121.394 365.57 122.125C366.27 124.803 366.694 127.844 367.248 131.009C367.657 133.354 367.985 135.929 368.855 139.94Z" fill="#FFA8A7"/>
<path d="M370.672 112.122C368.683 111.971 367.831 114.631 367.482 116.165C367.413 116.47 367.529 117.398 367.848 116.719C367.96 116.482 368.066 116.243 368.181 116.008C368.401 115.556 368.639 115.11 368.916 114.689C369.393 113.966 369.998 113.311 370.754 112.889C370.959 112.775 371.211 112.599 371.147 112.374C371.106 112.23 370.945 112.154 370.797 112.135C370.755 112.129 370.713 112.125 370.672 112.122Z" fill="#F28F8F"/>
<path d="M367.3 101.964C367.322 104.35 367.239 106.724 366.813 109.08C366.662 106.695 366.755 104.298 367.3 101.964Z" fill="#F28F8F"/>
<path d="M395.991 154.946C393.068 152.564 389.924 149.308 387.349 146.561C384.774 143.814 380.772 139.114 380.772 139.114L375.374 125.185C375.374 125.185 374.667 126.702 371.411 127.647C368.155 128.592 366.656 127.51 366.656 127.51C366.656 127.51 367.458 134.493 368.461 139.581C369.463 144.669 369.122 144.816 372.328 149.449C375.533 154.082 383.944 165.558 386.15 168.292C388.356 171.026 390.882 176.579 390.882 176.426C390.88 176.273 395.991 154.946 395.991 154.946Z" fill="#37474F"/>
<path d="M413.498 157.735C415.792 158.174 422.941 160.723 425.596 162.146C425.596 162.146 428.572 168.608 427.241 183.376C427.028 185.739 426.492 192.11 426.271 197.027C425.972 203.66 426.288 205.517 426.525 209.038C426.525 209.038 420.401 214.551 404.221 213.567C391.518 212.794 387.627 207.635 387.627 207.635C387.627 207.635 387.438 190.517 387.632 181.154C387.888 168.857 391.507 161.71 394.216 159.524L402.525 158.016L413.498 157.735Z" fill="#F0F0F0"/>
<path d="M414.961 157.764L414.97 158.589C414.97 158.589 412.028 165.944 411.983 180.365C411.938 194.786 412.573 217.86 412.573 217.86C412.573 217.86 422.414 217.511 428.937 212.108C428.937 212.108 427.526 199.621 427.584 193.888C427.642 188.154 429.105 179.861 430.613 171.689C432.145 163.39 420.438 152.544 420.438 152.544C418.824 154.754 417.009 156.517 414.961 157.764Z" fill="#D3B89B"/>
<path d="M402.22 157.109C399.265 156.926 398.358 156.379 395.99 154.946C395.99 154.946 389.386 162.64 387.821 173.974C386.257 185.308 385.795 212.726 385.795 212.726C386.912 213.402 389.855 214.514 391.249 214.687C391.249 214.687 391.565 201.185 392.102 188.743C392.749 173.732 393.634 164.279 402.24 158.043L402.22 157.109Z" fill="#D3B89B"/>
<path opacity="0.3" d="M417.353 182.475C415.937 183.911 414.542 185.368 413.167 186.847C414.727 185.476 416.267 184.085 417.782 182.669L417.901 182.558C417.279 181.332 416.688 180.091 416.046 178.876C416.046 178.876 414.678 176.238 414.398 175.698C415.718 175.194 417.03 174.669 418.34 174.137L418.543 174.055L418.547 173.842C418.633 169.37 418.671 164.72 418.553 160.259C418.224 164.634 418.035 169.206 417.903 173.608C416.42 174.176 414.939 174.751 413.471 175.357L413.644 175.678C414.724 177.678 416.222 180.489 417.353 182.475ZM388.197 178.497L388.247 178.605C389.103 180.492 389.975 182.37 390.898 184.226C390.216 182.315 389.483 180.425 388.735 178.54C389.852 176.89 390.944 175.224 392.02 173.548L392.139 173.363L392.014 173.179L390.408 170.807C390.73 169.795 391.128 168.806 391.568 167.831C393.014 164.763 394.842 161.904 396.842 159.155C393.76 162.576 391.066 166.49 389.652 170.911L389.746 171.049L391.335 173.378C390.294 175.035 389.267 176.701 388.266 178.384L388.197 178.497Z" fill="black"/>
<path d="M417.037 132.171C417.037 132.171 419.378 132.291 420.477 134.071C421.576 135.852 422.244 139.1 420.849 142.734C419.313 146.733 416.323 150.588 415.67 151.711C415.017 152.834 413.765 153.102 413.765 153.102L414.106 148.177L414.438 144.75C414.438 144.75 411.776 142.116 411.644 139.637C411.474 136.447 412.792 134.701 412.792 134.701L417.037 132.171Z" fill="#263238"/>
<path d="M399.933 137.207C401.29 136.628 402.998 136.47 404.45 136.441C405.832 136.414 407.213 136.38 408.595 136.349C410.074 136.316 411.554 136.284 413.033 136.251C413.033 136.251 417.786 135.668 417.931 132.327C418.002 130.683 417.243 129.549 417.081 129.304C416.506 128.44 415.576 127.451 414.732 126.854C412.723 125.434 410.877 124.672 408.372 124.387C406.566 124.181 404.738 124.358 402.94 124.627C401.724 124.809 400.479 125.032 399.275 124.781C398.412 124.601 397.506 124.045 397.395 123.171C396.411 124.264 396.172 125.967 396.818 127.288C395.635 127.184 394.478 128.05 394.12 129.183C393.719 130.45 394.269 131.504 394.985 132.5C394.897 132.377 394.381 133.301 394.34 133.379C394.057 133.919 393.942 134.544 394.031 135.157C394.158 136.027 394.904 136.674 395.678 137.092C397.038 137.829 398.528 137.806 399.933 137.207Z" fill="#263238"/>
<path d="M418.549 149.815C415.94 150.947 414.862 148.875 414.862 148.875L414.968 158.589C410.809 165.829 397.685 164.428 401.482 158.714L401.557 155.853C401.557 155.853 400.695 155.842 399.354 155.541C395.823 154.75 395.002 152.595 394.555 150.092C393.86 146.201 394.219 140.851 395.851 134.74C396.166 133.56 396.736 132.282 397.853 131.789C400.626 130.564 403.053 132.607 406.771 134.245C408.311 134.923 412.098 135.356 413.12 134.929C411.737 136.328 411.55 140.931 413.413 142.883C413.725 143.546 414.067 143.94 414.332 144.194C415.128 144.949 415.886 143.122 416.612 142.424C417.345 141.733 419.98 141.196 421 143.635C422.03 146.12 420.966 148.767 418.549 149.815Z" fill="#FFA8A7"/>
<path d="M401.556 155.854C404.524 155.965 407.062 155.723 409.145 154.726C410.861 153.905 413.301 151.523 413.911 149.195C413.703 152.957 412.236 154.668 409.521 155.946C406.806 157.224 403.464 157.358 401.521 157.316L401.556 155.854Z" fill="#F28F8F"/>
<path d="M406.287 137.509L408.498 139.101C408.929 138.463 408.783 137.589 408.173 137.149C407.562 136.709 406.718 136.871 406.287 137.509Z" fill="#263238"/>
<path d="M396.628 137.863L399.139 136.753C398.856 136.042 398.065 135.715 397.372 136.022C396.678 136.329 396.345 137.153 396.628 137.863Z" fill="#263238"/>
<path d="M407.351 141.085C407.303 141.696 406.768 142.152 406.157 142.104C405.546 142.056 405.09 141.521 405.138 140.91C405.186 140.299 405.721 139.843 406.332 139.891C406.943 139.939 407.399 140.474 407.351 141.085Z" fill="#263238"/>
<path d="M399.07 140.38C399.022 140.991 398.487 141.448 397.876 141.399C397.265 141.351 396.809 140.816 396.857 140.205C396.905 139.594 397.44 139.137 398.051 139.186C398.754 139.241 399.126 139.677 399.07 140.38Z" fill="#263238"/>
<path d="M402.724 139.127L401.504 146.147L397.834 144.609C399.269 142.176 400.899 140.349 402.724 139.127Z" fill="#F28F8F"/>
<path d="M405.286 146.929L400.715 148.017C401.061 149.3 402.366 150.096 403.628 149.795C404.89 149.495 405.633 148.211 405.286 146.929Z" fill="#B16668"/>
<path d="M402.533 149.782C402.941 148.543 404.046 147.64 405.363 147.507C405.388 148.576 404.699 149.54 403.628 149.796C403.257 149.883 402.886 149.867 402.533 149.782Z" fill="#F28F8F"/>
<path d="M399.875 70.1245L425.376 18.5475L411.116 10.3125L391.678 21.5345L380.89 43.2095L367.514 35.4855L350.039 45.5755V128.794L364.299 137.029L381.775 126.939V106.135L385.909 97.8635L391.945 104.6L406.206 112.835L426.714 100.995L399.875 70.1245Z" fill="#37474F"/>
<path d="M388.374 92.9335L381.775 106.135V126.939L364.299 137.029V53.8105L381.775 43.7205V78.3165L405.938 29.7705L425.376 18.5485L399.875 70.1255L426.714 100.995L406.206 112.836L388.374 92.9335Z" fill="#455A64"/>
<path d="M350.039 45.5755L364.299 53.8105L381.775 43.7205L367.514 35.4855L350.039 45.5755Z" fill="#455A64"/>
<path opacity="0.2" d="M350.039 45.5755L364.299 53.8105L381.775 43.7205L367.514 35.4855L350.039 45.5755Z" fill="white"/>
<path d="M391.678 21.5345L405.938 29.7695L425.376 18.5475L411.116 10.3125L391.678 21.5345Z" fill="#455A64"/>
<path opacity="0.2" d="M391.678 21.5345L405.938 29.7695L425.376 18.5475L411.116 10.3125L391.678 21.5345Z" fill="white"/>
<path d="M388.372 92.9335L406.205 112.834L391.944 104.6L385.908 97.8635L388.372 92.9335Z" fill="#263238"/>
<path d="M407.573 104.417C407.603 104.149 407.74 103.884 407.976 103.756C408.228 103.619 408.548 103.663 408.801 103.799C409.054 103.935 409.253 104.15 409.444 104.365C410.066 105.067 410.647 105.804 411.184 106.573C411.302 106.742 412.18 107.966 412.155 107.262C412.146 107.018 411.999 106.669 411.899 106.465C410.836 104.29 409.836 102.084 408.901 99.8515C408.703 99.3795 408.57 98.5695 409.06 98.2125C409.518 97.8785 410.148 98.1725 410.497 98.5225C410.707 98.7325 410.896 98.9605 411.061 99.2065C411.572 99.9685 412.038 100.761 412.457 101.578C412.631 101.917 412.788 102.249 413.007 102.56C413.05 102.621 413.348 103.058 413.402 102.81C413.415 102.749 413.393 102.687 413.371 102.63C412.94 101.494 412.4 100.405 411.89 99.3035C411.631 98.7455 411.38 98.1845 411.154 97.6115C411.003 97.2285 410.614 96.5675 410.793 96.1495C410.852 96.0105 410.971 95.9045 411.1 95.8255C411.502 95.5815 412.052 95.5925 412.445 95.8505C412.666 95.9955 412.88 96.1985 413.058 96.3925C413.182 96.5275 413.374 96.8085 413.535 97.0745C413.541 96.3245 414.469 96.1475 415.003 96.5345C415.819 97.1255 416.193 98.0065 416.691 99.0865C417.179 100.145 417.624 101.222 418.087 102.292C418.442 103.113 418.688 103.989 419.084 104.809C419.165 104.976 419.275 105.136 419.467 105.113C419.515 103.489 418.487 101.554 420.112 100.326C420.203 100.257 420.303 100.194 420.416 100.179C420.975 100.102 421.786 103.697 421.961 104.251C422.318 105.383 422.546 106.452 422.659 107.63C422.752 108.599 422.622 109.635 422.914 110.583C423.177 111.439 423.53 112.27 423.988 113.041C424.669 114.187 425.58 115.298 427.114 116.938C428.715 118.649 430.103 119.874 432.078 122.124C430.879 123.033 429.615 123.874 428.216 124.605C426.403 125.552 424.588 126.029 422.724 126.418C421.225 123.921 420.061 122 418.472 119.495C418.399 119.38 418.321 119.268 418.24 119.158C418.135 119.017 418.022 118.88 417.905 118.749C416.375 117.032 414.545 115.891 413.042 114.111C411.729 112.557 410.969 111.048 410.05 109.501C409.646 108.821 409.308 108.102 408.895 107.437C408.472 106.755 408.043 106.07 407.748 105.32C407.642 105.051 407.553 104.767 407.568 104.478C407.569 104.459 407.57 104.438 407.573 104.417Z" fill="#FFA8A7"/>
<path d="M413.533 97.0756C414.407 99.2956 415.376 101.466 416.654 103.49C415.9 101.221 414.914 99.0336 413.533 97.0756Z" fill="#F28F8F"/>
<path d="M420.438 152.546C422.319 149.278 424.094 145.114 425.519 141.629C426.944 138.144 427.603 135.906 427.603 135.906L418.291 119.767C418.291 119.767 419.561 120.111 422.551 118.306C425.579 116.479 425.316 114.909 425.316 114.909C425.316 114.909 435.234 123.997 438.868 128.116C442.299 132.004 441.926 133.496 440.584 138.967C439.242 144.438 434.874 156.918 433.789 160.259C432.704 163.6 430.613 171.69 430.613 171.69C425.919 172.945 418.994 162.997 420.438 152.546Z" fill="#37474F"/>
<path d="M93.3491 374.725C93.8231 374.629 93.9241 376.056 93.8251 376.685C93.7261 377.314 92.0001 379.575 88.6081 380.681C85.2161 381.787 80.3481 381.666 78.2811 381.809C76.2141 381.952 73.1881 383.291 71.2031 383.937C66.5951 385.437 63.7651 384.022 62.4201 382.998C61.8921 382.597 61.7751 381.934 61.7291 381.357C61.6191 379.988 61.7141 379.7 61.8741 379.694L93.3491 374.725Z" fill="#37474F"/>
<path d="M62.0198 375.255C61.8258 376.201 61.6658 377.2 61.5788 378.162C61.4728 379.338 61.4108 380.838 62.2908 381.669C63.7758 383.071 65.4398 383.308 67.1638 383.304C69.2308 383.3 71.2188 382.84 73.1178 381.989C74.8528 381.211 76.2368 380.537 78.1818 380.433C80.3188 380.319 83.2838 380.37 85.3798 379.918C87.1698 379.531 88.9258 379.126 90.5138 378.205C91.8558 377.427 92.6558 376.498 93.3728 374.979C93.1838 372.311 91.6908 371.191 90.1308 370.516C88.4838 369.803 86.4498 369.798 84.6688 370.017C82.6648 370.263 81.1818 370.705 79.3888 370.785C78.1738 370.84 76.8978 370.802 75.7538 370.346C75.2078 370.129 74.7508 369.382 74.4548 368.892C74.0948 368.295 73.9268 367.744 73.3498 367.753C73.3498 367.753 63.9678 368.797 63.1198 368.94C62.1558 369.102 62.4248 370.406 62.4618 371.111C62.4938 371.72 62.4738 371.734 62.5028 372.343C62.5318 372.94 62.3538 373.802 62.2138 374.382C62.1448 374.671 62.0798 374.963 62.0198 375.255Z" fill="#455A64"/>
<path d="M80.9015 370.258C81.0275 370.165 81.1675 370.09 81.3195 370.049C82.1195 369.831 82.8345 370.559 83.2535 371.146C83.5105 371.506 83.6615 371.904 83.8205 372.315C84.0145 372.816 84.1405 373.363 84.0345 373.899C84.0075 374.035 83.9235 374.199 83.7865 374.182C83.6615 374.166 83.6115 374.015 83.5855 373.892C83.4285 373.158 83.1345 372.454 82.7255 371.825C82.5435 371.546 82.4085 371.307 82.1365 371.103C81.8775 370.908 81.5825 370.761 81.2665 370.687C81.1385 370.657 80.5935 370.72 80.6965 370.468C80.7165 370.42 80.7545 370.381 80.7935 370.347C80.8285 370.314 80.8645 370.285 80.9015 370.258Z" fill="#FAFAFA"/>
<path d="M78.5463 370.533C78.9173 370.453 79.3293 370.51 79.6603 370.71C80.0513 370.946 80.2223 371.321 80.4243 371.71C80.8183 372.467 81.1863 373.611 80.8033 374.439C80.6803 374.705 80.4483 374.6 80.3373 374.386C80.2133 374.149 80.2033 373.811 80.1423 373.552C79.9923 372.94 79.7223 372.356 79.4283 371.801C79.3123 371.581 79.1863 371.363 79.0173 371.181C78.9033 371.059 78.7693 370.953 78.6163 370.885C78.5423 370.852 78.4643 370.826 78.3843 370.817C78.3113 370.808 78.2313 370.815 78.1573 370.814C78.1433 370.699 78.2673 370.619 78.3763 370.581C78.4313 370.561 78.4883 370.546 78.5463 370.533Z" fill="#FAFAFA"/>
<path d="M76.0957 370.131C76.3757 370.194 76.6407 370.316 76.8407 370.518C77.0287 370.708 77.1486 370.956 77.2466 371.205C77.4696 371.765 77.6947 372.353 77.7757 372.954C77.8327 373.379 77.8037 373.827 77.6167 374.213C77.5427 374.366 77.3927 374.528 77.2307 374.475C77.0537 374.417 77.0397 374.148 77.0077 373.995C76.9487 373.713 76.9407 373.415 76.9057 373.129C76.7777 372.074 76.3126 371.098 75.5946 370.311C75.5586 370.272 75.5197 370.225 75.5287 370.172C75.5427 370.094 75.6467 370.076 75.7257 370.08C75.8497 370.088 75.9747 370.104 76.0957 370.131Z" fill="#FAFAFA"/>
<path d="M83.4278 370.199C84.2528 370.092 86.1258 371.025 87.2628 373.472C88.3998 375.919 88.2848 379.177 88.2848 379.177C88.2848 379.177 90.7148 378.742 92.6428 376.482C93.1798 375.853 93.4848 375.341 93.6328 374.896C93.6618 373.205 93.1128 371.856 92.3308 371.112C90.9608 369.808 88.9978 369.074 86.0458 369.249C82.7348 369.445 82.5488 370.354 82.5488 370.354L83.4278 370.199Z" fill="#FAFAFA"/>
<path d="M61.5195 354.407C61.5195 354.407 62.9125 367.542 63.1855 370.231C63.3015 371.375 65.8285 372.631 69.3295 372.284C71.7895 372.039 73.3145 370.554 73.5365 369.283C73.7585 368.012 74.4745 352.598 74.4745 352.598L61.5195 354.407Z" fill="#C8856A"/>
<path d="M25.9121 351.085L29.5701 337.591L42.3151 342.262L33.2351 357.842L25.9121 351.085Z" fill="#C8856A"/>
<path d="M21.299 354.819C21.018 355.979 21.31 357.192 21.466 358.353C21.623 359.522 21.794 360.669 21.882 361.848C21.937 362.586 22.009 363.265 22.176 363.977C22.364 364.776 22.257 365.727 22.276 366.546C22.297 367.445 22.318 368.343 22.331 369.242C22.336 369.594 22.414 370.047 22.327 370.393C22.234 370.765 28.021 374.082 30.356 375.36C30.491 375.436 30.627 375.495 30.779 375.563C32.911 376.401 34.57 374.675 34.57 374.675C36.211 370.326 32.996 367.585 32.996 367.585C32.996 367.585 32.7 367.602 32.759 365.318C32.759 363.693 32.78 362.041 32.933 360.422C33.031 359.398 33.451 359.07 33.837 358.126C34.19 357.262 34.866 356.347 34.829 355.379C34.8 354.603 34.151 353.421 33.785 352.792C32.933 351.332 31.061 350.127 29.553 349.45C28.694 349.065 27.295 348.644 26.412 349.178C25.936 349.466 25.712 350.026 25.371 350.466C24.968 350.987 24.395 351.344 23.852 351.717C22.802 352.439 21.774 353.329 21.377 354.54C21.348 354.633 21.322 354.726 21.299 354.819Z" fill="#455A64"/>
<path d="M32.9961 367.585C33.2841 367.94 33.5381 368.304 33.7491 368.677H33.7581C34.7901 370.445 35.0441 372.451 34.5701 374.676C38.6561 374.304 39.7311 371.943 39.7311 371.943C39.7311 371.943 39.9591 369.904 37.6071 368.423C37.3111 368.237 37.0151 368.076 36.7191 367.958C36.7021 367.95 36.6851 367.941 36.6771 367.933C34.6971 367.094 32.9961 367.585 32.9961 367.585Z" fill="#FAFAFA"/>
<path d="M20.3477 355.458C19.2727 355.874 19.5487 358.825 20.2297 361.666C20.9107 364.507 21.2777 365.498 20.9327 367.861C20.5877 370.224 20.3897 371.282 21.3527 372.149C22.3167 373.016 29.9807 376.595 29.9807 376.595C29.9807 376.595 28.4707 372.957 28.2687 367.719C28.0667 362.482 27.7167 359.109 25.2877 356.728C22.8577 354.348 20.3477 355.458 20.3477 355.458Z" fill="#263238"/>
<path d="M39.7347 371.94C39.7347 371.94 36.7577 374.344 33.3377 374.732C29.9177 375.121 29.7467 373.807 29.3867 369.753C29.0267 365.699 28.8877 360.094 27.2917 357.626C25.6957 355.157 23.0107 354.063 21.9547 354.314C21.7377 354.202 20.6897 354.985 20.3477 355.457C20.3477 355.457 22.6907 355.164 24.8257 357.253C26.9617 359.341 27.3517 363.75 27.4497 367.758C27.5477 371.766 27.7237 376.409 30.9157 376.897C34.1067 377.385 37.4987 376.016 39.6147 374.252C40.8337 373.238 39.7347 371.94 39.7347 371.94Z" fill="#37474F"/>
<path d="M32.7558 366.095C32.7558 366.095 33.1828 366.375 33.2288 366.837C33.2748 367.299 33.0858 368.36 32.0688 368.941C31.6378 369.187 31.2688 369.089 31.9628 368.246C32.6578 367.401 32.7558 366.095 32.7558 366.095Z" fill="#FAFAFA"/>
<path d="M32.8241 363.273C32.8241 363.273 33.0941 363.52 33.1131 363.886C33.1331 364.252 32.4581 365.76 31.7061 366.095C30.9551 366.429 31.3591 365.601 31.7061 365.216C32.0531 364.83 32.8241 363.273 32.8241 363.273Z" fill="#FAFAFA"/>
<path d="M33.0093 360.167C33.0093 360.167 33.3443 360.341 33.3633 360.669C33.3823 360.996 31.8413 362.152 31.3593 362.114C30.8773 362.075 30.7613 361.921 31.3593 361.517C31.9563 361.112 33.0093 360.167 33.0093 360.167Z" fill="#FAFAFA"/>
<path d="M37.3431 351.03C37.3431 351.03 41.9171 343.695 50.2661 330.039C52.6321 326.17 53.9361 323.33 54.5091 320.388C55.0811 317.446 57.4041 308.489 57.4041 308.489L59.6331 323.754C59.0251 327.612 58.9661 333.634 59.8001 343.821C60.5401 352.87 62.1171 364.044 62.1171 364.044C62.9231 364.653 66.2531 365.189 68.3331 365.018C73.5361 364.589 74.4781 362.47 74.4781 362.47C74.4781 362.47 76.1941 344.452 76.7871 337.732C78.1801 321.935 78.5881 318.207 79.3691 300.007C80.0291 284.607 78.5661 275.077 74.2411 261.278C62.9761 266.386 47.6731 265.424 41.3591 259.795C41.3591 259.795 36.2971 268.347 36.1761 281.862C36.0741 293.257 37.0351 315.372 37.0351 315.372C34.5281 319.163 32.9591 322.168 31.5761 327.673C29.9811 334.021 28.8461 338.31 27.1641 345.408C33.6051 345.244 37.3431 351.03 37.3431 351.03Z" fill="#37474F"/>
<path d="M36.2175 346.61C37.0355 345.077 37.8515 343.543 38.6745 342.012C40.2155 339.146 43.6665 333.294 45.1315 330.388C48.0815 324.537 50.6595 318.461 52.1915 312.073C52.6075 310.338 52.9525 308.588 53.1835 306.818C53.3055 305.883 53.3985 304.944 53.4585 304.002C53.5535 302.52 53.4535 301.017 53.6495 299.542C53.6755 299.349 54.0125 298.899 54.1305 299.295C54.6105 300.898 54.4655 302.73 54.3885 304.384C54.3085 306.085 54.1295 307.781 53.8625 309.463C53.3365 312.784 52.4605 316.048 51.3255 319.211C49.0125 325.656 43.8875 334.715 40.6455 340.729C39.7275 342.433 38.8055 344.134 37.8775 345.833C37.2425 346.996 36.6285 348.196 35.9665 349.362C35.7225 349.108 35.4505 348.843 35.1445 348.57C35.5025 347.911 35.8715 347.258 36.2175 346.61Z" fill="#263238"/>
<path d="M72.0828 279.445C71.4638 273.997 70.3678 268.479 68.4648 263.295C68.7608 263.218 69.0548 263.137 69.3478 263.054C71.5038 268.268 72.6858 273.771 73.3528 279.375C76.1288 278.737 76.6458 274.806 76.5548 272.448C76.4998 271.042 76.2818 269.65 76.0388 268.266C75.8718 267.313 75.6288 266.327 75.4578 265.34C76.2538 268.106 76.9318 270.734 77.4838 273.305C77.4798 273.411 77.4858 273.516 77.4798 273.622C77.3388 276.163 76.2268 279.68 73.4528 280.321C74.0318 285.635 74.1848 291.026 74.2968 296.332C74.5968 310.553 74.2928 324.784 73.3928 338.979C72.9788 345.498 72.1958 357.982 71.3388 364.48C70.9688 364.591 70.5618 364.695 70.1038 364.782C70.5268 359.108 71.5448 347.553 71.9328 341.876C72.4118 334.863 72.7458 327.84 72.9348 320.813C73.1308 313.507 73.1738 306.196 73.0598 298.889C72.9598 292.403 72.8158 285.895 72.0828 279.445Z" fill="#263238"/>
<path d="M74.2394 261.278L73.3184 255.789C73.3184 255.789 65.9534 259.91 57.1844 259.384C48.4164 258.858 42.6294 254.298 42.6294 254.298L41.3574 259.794C41.3574 259.794 45.0844 265.258 57.2724 265.083C69.4604 264.908 74.2394 261.278 74.2394 261.278Z" fill="#263238"/>
<path d="M57.4046 308.49L53.8206 286.87C53.8206 286.87 49.7826 287.145 43.5566 281.68C43.5566 281.68 44.5496 286.315 51.2376 289.494L54.9916 310.337L54.5096 320.389L57.4046 308.49Z" fill="#263238"/>
<path d="M85.993 170.375C85.41 170.757 84.996 171.343 84.579 171.902C84.018 172.656 83.428 173.387 82.81 174.095C82.736 174.179 82.587 174.259 82.533 174.161C82.511 174.122 82.522 174.073 82.535 174.03C82.682 173.518 82.933 173.043 83.18 172.571C83.864 171.26 84.519 169.933 85.096 168.571C85.236 168.241 85.373 167.903 85.409 167.546C85.446 167.186 85.394 166.718 85.115 166.462C84.958 166.318 84.575 166.023 84.098 166.316C84.312 165.897 84.374 165.558 84.253 165.179C84.02 164.454 83.227 164.176 82.63 164.663C82.409 164.843 82.248 165.084 82.092 165.323C80.887 167.179 79.925 169.169 78.816 171.081C78.663 171.344 78.389 171.338 78.464 170.988C78.818 169.347 79.668 167.859 79.998 166.212C80.129 165.558 80.308 164.864 79.729 164.408C79.032 163.859 78.499 164.395 78.166 165.042C77.036 167.242 75.995 169.499 75.097 171.804C74.911 172.28 73.882 175.038 73.558 173.29C73.433 172.613 73.331 171.941 73.2 171.269C73.101 170.761 72.949 170.204 72.56 169.85C72.274 169.59 71.622 169.169 71.345 169.66C71.273 169.788 71.269 169.941 71.267 170.087C71.235 172.148 70.986 174.198 71.042 176.264C71.066 177.151 71.052 179.034 71.36 180.49C71.658 181.903 69.223 187.745 66.709 193.243C68.688 195.755 71.458 197.369 76.429 196.488C77.607 192.139 78.715 187.995 78.97 187.138C78.97 187.138 79.703 185.105 80.136 184.119C80.516 183.251 80.99 182.449 81.428 181.613C81.88 180.751 82.28 179.856 82.717 178.986C83.609 177.209 84.543 175.452 85.6 173.767C86.074 173.012 86.578 172.259 86.835 171.405C87.023 170.778 86.786 169.855 85.993 170.375Z" fill="#C8856A"/>
<path d="M77.5086 177.748C77.3846 176.857 76.8986 175.917 76.0676 175.508C75.9356 175.443 75.8886 175.733 75.9766 175.798C76.6506 176.291 77.0386 177.174 77.0436 178.002C77.0496 178.991 76.8766 179.852 76.4226 180.768C76.3856 180.843 76.4566 181.023 76.5586 180.914C77.3336 180.084 77.6626 178.857 77.5086 177.748Z" fill="#AF6152"/>
<path d="M81.547 171.533C81.878 171.005 82.134 170.458 82.444 169.917C82.746 169.389 83.043 168.858 83.313 168.313C83.558 167.818 84.114 166.966 84.098 166.397C84.096 166.318 83.958 166.548 83.926 166.599C83.498 167.283 82.501 169.217 82.164 169.819C81.56 170.896 80.843 172.055 80.321 173.176C80.276 173.272 80.387 173.288 80.443 173.229C80.926 172.717 81.174 172.129 81.547 171.533Z" fill="#AF6152"/>
<path d="M66.7081 193.243C64.1861 198.759 61.2121 203.713 61.2121 203.713C61.2121 203.713 46.3051 217.347 42.5511 221.285C38.7971 225.223 35.7681 234.164 39.6481 240.865C41.3091 237.234 42.0651 235.73 46.5781 232.395C52.3911 228.1 63.3911 220.057 66.7081 216.905C69.8491 213.922 71.9531 212.067 73.6041 206.636C74.1921 204.701 75.3401 200.507 76.4291 196.488C72.3671 196.698 69.2231 195.465 66.7081 193.243Z" fill="#E0E0E0"/>
<path d="M65.1523 200.58C65.1523 200.58 69.2873 204.048 69.0813 204.51C68.8753 204.972 67.4723 205.796 67.4723 205.796L65.1523 200.58Z" fill="#AF6152"/>
<path d="M55.4739 191.994C57.7329 192.443 61.4689 192.519 64.6059 197.782C65.1469 198.689 65.1829 200.314 65.6809 201.505C66.2399 202.843 67.2699 204.214 67.6119 205.316C69.3949 211.065 68.3459 213.767 67.6089 214.996C67.0159 215.984 62.9319 217.429 60.5749 217.376C57.6259 217.309 50.9399 216.103 46.9329 212.431C42.2199 208.111 39.5929 201.328 42.5719 197.543C46.7639 192.217 53.2319 191.549 55.4739 191.994Z" fill="#C8856A"/>
<path d="M67.4279 215.212C66.6029 216.023 63.8979 217.022 61.7509 217.3L60.7949 215.735C60.7949 215.735 62.6819 215.946 64.3769 215.859C66.0629 215.773 67.4119 215.219 67.4279 215.212Z" fill="#AF6152"/>
<path d="M62.0969 215.547L61.4419 223.159C61.4419 223.159 55.6289 224.924 49.5039 223.174L50.1579 219.05C53.2189 214.88 57.6379 213.783 62.0969 215.547Z" fill="#C8856A"/>
<path d="M57.8733 188.487C58.0723 188.466 58.2713 188.453 58.4733 188.466C59.5743 188.54 60.6543 188.898 61.5923 189.475C63.0083 190.345 64.1053 191.687 64.8053 193.194C65.2493 194.149 65.5443 195.224 65.3253 196.254C65.0973 197.325 64.3453 198.209 63.5243 198.934C63.7213 197.799 63.1833 196.57 62.2143 195.946C62.7263 197.115 62.7743 198.48 62.3463 199.682C61.9183 200.884 61.0173 201.911 59.8813 202.492C60.4413 203.125 60.7843 203.946 60.8393 204.789C60.8553 205.034 60.8453 205.29 60.7313 205.507C60.4183 206.103 59.7223 205.789 59.3133 205.495C59.0343 205.294 58.7893 205.051 58.5143 204.845C57.7033 204.237 57.2383 203.928 55.9453 204.05C55.0173 204.137 53.9813 205.189 53.9103 206.014C53.7623 207.752 54.7753 209.356 55.5213 210.021C56.5193 210.911 57.5343 211.302 58.3963 211.108C58.8313 211.01 59.7923 210.537 59.9813 209.856C59.9813 209.856 61.7453 214.495 58.3083 217.105C58.3083 217.105 54.3593 219.428 50.1573 219.05C49.6863 219.008 48.6573 217.923 48.2453 217.637C47.4523 217.086 46.6433 216.558 45.8343 216.03C44.4843 215.15 43.4733 214.121 42.3233 213.001C39.8753 210.619 38.4983 207.379 37.7533 203.997C37.1953 201.467 38.2623 198.241 38.2623 198.241C38.6993 196.922 38.8033 195.694 39.5463 194.454C40.2653 193.256 41.2303 192.217 42.3233 191.352C44.6693 189.496 47.6043 188.403 50.5643 188.076C52.2693 187.888 54.0083 187.955 55.6873 188.321C56.0753 188.406 56.4743 188.563 56.8663 188.573C57.2003 188.583 57.5353 188.523 57.8733 188.487Z" fill="#263238"/>
<path d="M40.2009 227.633C41.1089 224.188 42.2339 221.925 48.7839 222.225L49.6959 222.254C52.0279 222.591 53.8479 222.64 59.3089 222.101C64.7699 221.563 66.2709 221.242 67.8839 221.694C67.8839 221.694 74.8489 228.743 77.2179 236.227C79.0459 242.003 76.2049 245.925 74.8989 247.444C75.0599 254.394 76.2039 266.345 76.2039 266.345C76.2039 266.345 70.7799 272.815 55.4199 272.249C45.4049 271.881 39.9289 266.404 38.7949 264.646C38.7949 264.646 41.6809 257.152 41.8079 252.395C40.9749 245.463 37.5469 237.701 40.2009 227.633Z" fill="#D3B89B"/>
<path d="M32.1607 200.785C31.2607 202.566 30.9427 204.649 31.2607 206.625C31.7627 209.746 33.5297 212.517 34.2747 215.582C35.0017 218.573 32.5867 221.697 31.8487 224.551C30.5957 229.399 32.5067 234.913 36.4927 237.945C36.1257 236.692 36.0207 235.361 36.1887 234.066C36.2407 235.867 37.3507 237.506 38.7647 238.623C40.1787 239.74 41.8817 240.418 43.5587 241.078C41.8687 239.737 41.4657 237.265 41.9407 235.161C42.4157 233.057 43.6007 231.197 44.6277 229.3C45.6437 227.426 46.2397 225.444 46.8017 223.4C47.4567 221.019 46.7687 218.361 45.7477 216.202C44.5887 213.751 43.3027 211.349 42.4347 208.781C41.5667 206.213 41.1327 203.426 41.7317 200.782C41.8757 200.148 42.0787 199.516 42.0677 198.865C42.0347 196.979 40.5097 195.964 38.7507 196.161C36.7077 196.39 34.7577 197.409 33.3977 198.949C32.9077 199.507 32.4937 200.126 32.1607 200.785Z" fill="#263238"/>
<path d="M118.725 94.8925L62.8203 127.169V145.834L77.0803 154.069L81.9903 151.234V199.32L96.2503 207.555L113.905 197.362V132.808L132.986 121.792V103.127L118.725 94.8925Z" fill="#37474F"/>
<path d="M96.2501 143.001L77.0801 154.069V135.404L132.986 103.127V121.792L113.906 132.808V197.362L96.2511 207.555L96.2501 143.001Z" fill="#455A64"/>
<path d="M62.8203 127.169L77.0803 135.404L132.986 103.127L118.725 94.8925L62.8203 127.169Z" fill="#455A64"/>
<path opacity="0.2" d="M62.8203 127.169L77.0803 135.404L132.986 103.127L118.725 94.8925L62.8203 127.169Z" fill="white"/>
<path d="M96.2502 143.001L81.9902 151.234V199.32L96.2502 207.555V143.001Z" fill="#263238"/>
<path d="M100.816 211.194C97.79 214.509 94.553 218.005 94.553 218.005C94.553 218.005 81.074 220.18 74.269 220.796C72.258 220.978 70.3 221.399 67.884 221.694C67.884 221.694 65.862 226.648 69.373 233.006C70.82 235.626 73.694 236.943 74.889 237.234C77.184 233.991 85.866 232.792 93.968 230.368C99.29 228.776 100.867 227.877 102.489 225.86C103.56 224.529 106.399 220.006 108.757 216.183C105.601 215.49 102.703 214.581 100.816 211.194Z" fill="#E0E0E0"/>
<path d="M117.842 198.381C117.465 197.722 117.336 197.337 117.396 196.575C117.443 195.982 117.326 195.113 116.965 194.617C116.838 194.442 116.68 194.265 116.576 194.076C116.275 193.526 116.386 192.781 116.364 192.164C116.338 191.432 116.27 191.101 115.813 190.525C115.463 190.084 115.351 189.698 115.254 189.155C115.176 188.717 115.16 187.269 114.392 187.48C114 187.588 113.553 188.228 113.359 188.546C112.985 189.158 112.729 189.939 112.57 190.633C112.39 191.422 112.404 192.202 112.279 192.997C111.995 194.807 111.299 196.661 110.311 198.206C110.161 198.441 109.809 198.95 109.477 198.807C109.329 198.744 109.226 198.567 109.159 198.425C109.018 198.131 108.99 197.784 108.912 197.471C108.827 197.129 108.722 196.79 108.635 196.448C108.451 195.731 107.994 194.867 107.31 194.511C106.795 194.242 106.118 194.199 106.097 194.93C106.078 195.605 106.326 196.251 106.291 196.929C106.254 197.661 106.051 198.39 105.973 199.122C105.855 200.233 105.833 201.373 106.037 202.477C106.215 203.438 106.291 204.4 105.965 205.38C105.894 205.595 103.432 208.327 100.814 211.194C102.701 214.581 105.599 215.49 108.755 216.183C110.601 213.19 112.153 210.624 112.331 210.354C112.736 209.738 113.247 209.202 113.697 208.618C114.199 207.965 114.632 207.262 115.119 206.596C116.021 205.361 116.853 204.058 117.444 202.643C117.958 201.412 118.568 199.651 117.842 198.381Z" fill="#C8856A"/>
<path d="M70.8859 96.1405L66.5089 87.9115L70.0299 77.7475V71.5255L59.2539 77.7475V83.9695L63.8869 91.9945C63.9649 92.1295 64.0779 92.2185 64.2019 92.2745L64.1989 92.2785L70.8859 96.1405Z" fill="#D3B89B"/>
<path opacity="0.2" d="M70.8859 96.1405L66.5089 87.9115L70.0299 77.7475V71.5255L59.2539 77.7475V83.9695L63.8869 91.9945C63.9649 92.1295 64.0779 92.2185 64.2019 92.2745L64.1989 92.2785L70.8859 96.1405Z" fill="black"/>
<path d="M96.6217 22.0625C96.6217 20.0015 95.1757 17.4965 93.3907 16.4665L90.7597 14.9475C88.9757 13.9175 86.0827 13.9175 84.2977 14.9475L43.9537 38.2825C42.1687 39.3125 40.7227 41.8175 40.7227 43.8785V88.2686C40.7227 90.3296 42.1697 92.8345 43.9537 93.8645L46.5847 95.3835C48.3697 96.4135 51.2627 96.4135 53.0467 95.3835L66.0227 87.8866L70.6457 95.8945C70.9417 96.4065 71.7017 96.3345 71.8957 95.7755L76.7827 81.6695L93.3927 72.0475C95.1767 71.0175 96.6227 68.5125 96.6227 66.4515L96.6217 22.0625Z" fill="#D3B89B"/>
<path opacity="0.2" d="M40.7227 88.2696C40.7227 90.3306 42.1687 92.8356 43.9537 93.8656L46.5847 95.3846C48.1977 96.3156 50.7077 96.3966 52.4947 95.6446C50.9737 96.2196 49.8157 95.3616 49.8157 93.5186V49.1276C49.8157 48.0976 50.1777 46.9556 50.7617 45.9436L41.6697 40.6946C41.0847 41.7066 40.7237 42.8486 40.7237 43.8786L40.7227 88.2696Z" fill="black"/>
<path opacity="0.3" d="M96.5167 21.1445C96.1397 19.7725 94.8887 19.3355 93.3967 20.1955L53.0447 43.5355C52.1557 44.0475 51.3417 44.9225 50.7687 45.9465L41.6797 40.7015C42.2677 39.6765 43.0667 38.8025 43.9557 38.2895L84.2927 14.9495C86.0867 13.9245 88.9807 13.9245 90.7597 14.9495L93.3977 16.4725C94.9187 17.3465 96.1997 19.3055 96.5167 21.1445Z" fill="white"/>
<path d="M61.0373 58.7176C61.0253 56.2906 61.6023 53.7446 62.5593 51.4956L62.5553 51.4906L62.5753 51.4426C63.6933 48.8346 65.3353 46.6376 67.1623 45.5666C70.2983 43.7206 72.9163 47.5066 73.3333 51.9556C73.7023 47.0466 76.2663 40.2216 79.4023 38.3906C81.2293 37.3196 82.8833 37.5846 84.0213 38.8686L84.0423 38.8936L84.0383 38.9026C85.0113 40.0206 85.6113 41.8756 85.6233 44.3026C85.6613 51.8236 81.1653 58.6266 77.4053 65.7796L73.3463 72.6936L69.4253 70.4586C65.6133 67.7446 61.0753 66.2386 61.0373 58.7176Z" fill="#FAFAFA"/>
</svg>
